<svg width="423" height="423" viewBox="0 0 423 423" fill="none" xmlns="http://www.w3.org/2000/svg">
<path d="M380.615 337.123H352.596V337.334H380.615V337.123Z" fill="#EBEBEB"/>
<path d="M280.212 339.424H272.86V339.635H280.212V339.424Z" fill="#EBEBEB"/>
<path d="M351.75 329.272H335.515V329.483H351.75V329.272Z" fill="#EBEBEB"/>
<path d="M80.9199 330.693H44.3812V330.904H80.9199V330.693Z" fill="#EBEBEB"/>
<path d="M93.8129 330.693H88.4578V330.904H93.8129V330.693Z" fill="#EBEBEB"/>
<path d="M190.477 334.263H111.224V334.475H190.477V334.263Z" fill="#EBEBEB"/>
<path d="M201.686 285.779H38.3238C37.0426 285.779 35.8139 285.27 34.908 284.364C34.0021 283.458 33.4931 282.229 33.4931 280.948V51.3184C33.5043 50.0445 34.0182 48.8267 34.9229 47.9299C35.8276 47.0331 37.0499 46.5299 38.3238 46.53H201.686C202.321 46.53 202.949 46.6549 203.535 46.8977C204.121 47.1405 204.654 47.4963 205.102 47.9449C205.551 48.3934 205.907 48.926 206.149 49.512C206.392 50.0981 206.517 50.7263 206.517 51.3607V280.948C206.517 281.583 206.392 282.211 206.149 282.797C205.907 283.383 205.551 283.915 205.102 284.364C204.654 284.813 204.121 285.168 203.535 285.411C202.949 285.654 202.321 285.779 201.686 285.779ZM38.3238 46.6992C37.0994 46.7014 35.9258 47.1888 35.06 48.0546C34.1942 48.9204 33.7069 50.094 33.7046 51.3184V280.948C33.7069 282.173 34.1942 283.346 35.06 284.212C35.9258 285.078 37.0994 285.565 38.3238 285.567H201.686C202.911 285.565 204.084 285.078 204.95 284.212C205.816 283.346 206.303 282.173 206.306 280.948V51.3184C206.303 50.094 205.816 48.9204 204.95 48.0546C204.084 47.1888 202.911 46.7014 201.686 46.6992H38.3238Z" fill="#EBEBEB"/>
<path d="M384.676 285.779H221.314C220.032 285.779 218.804 285.27 217.898 284.364C216.992 283.458 216.483 282.229 216.483 280.948V51.3184C216.494 50.0445 217.008 48.8267 217.913 47.9299C218.817 47.0331 220.04 46.5299 221.314 46.53H384.676C385.957 46.53 387.186 47.0389 388.092 47.9449C388.998 48.8508 389.507 50.0795 389.507 51.3607V280.948C389.507 282.229 388.998 283.458 388.092 284.364C387.186 285.27 385.957 285.779 384.676 285.779ZM221.314 46.6992C220.089 46.7014 218.916 47.1888 218.05 48.0546C217.184 48.9204 216.697 50.094 216.694 51.3184V280.948C216.697 282.173 217.184 283.346 218.05 284.212C218.916 285.078 220.089 285.565 221.314 285.567H384.676C385.901 285.565 387.074 285.078 387.94 284.212C388.806 283.346 389.293 282.173 389.295 280.948V51.3184C389.293 50.094 388.806 48.9204 387.94 48.0546C387.074 47.1888 385.901 46.7014 384.676 46.6992H221.314Z" fill="#EBEBEB"/>
<path d="M423 323.51H0V323.722H423V323.51Z" fill="#EBEBEB"/>
<path d="M100.953 266.278C100.243 258.106 91.901 255.052 82.0112 255.915C72.1215 256.778 64.4483 261.236 65.142 269.409L100.953 266.278Z" fill="#F0F0F0"/>
<path d="M81.6897 252.184C86.2751 251.778 87.7386 247.903 87.341 243.318C86.9434 238.733 84.803 235.171 80.2346 235.569C75.6662 235.966 74.1857 239.849 74.5833 244.435C74.981 249.02 77.1044 252.582 81.6897 252.184Z" fill="#F0F0F0"/>
<path d="M287.725 92.214C287.805 93.121 287.614 94.0314 287.177 94.8301C286.74 95.6287 286.075 96.2797 285.268 96.7006C284.46 97.1216 283.546 97.2936 282.641 97.1948C281.736 97.0961 280.88 96.731 280.183 96.1459C279.485 95.5608 278.977 94.7819 278.722 93.9077C278.467 93.0336 278.477 92.1034 278.751 91.2351C279.025 90.3667 279.551 89.5992 280.261 89.0295C280.971 88.4598 281.835 88.1136 282.742 88.0348C283.956 87.9292 285.163 88.3099 286.098 89.0935C287.032 89.8771 287.617 90.9994 287.725 92.214Z" fill="#F5F5F5"/>
<path d="M313.164 89.9636C313.242 90.8688 313.051 91.7769 312.613 92.5731C312.176 93.3694 311.512 94.018 310.706 94.437C309.9 94.856 308.987 95.0266 308.084 94.9271C307.181 94.8276 306.328 94.4626 305.632 93.8782C304.937 93.2937 304.43 92.5162 304.176 91.6438C303.923 90.7714 303.933 89.8434 304.207 88.977C304.481 88.1107 305.005 87.345 305.714 86.7767C306.423 86.2084 307.284 85.8631 308.189 85.7844C309.403 85.6812 310.608 86.063 311.54 86.8464C312.472 87.6297 313.056 88.7506 313.164 89.9636Z" fill="#F5F5F5"/>
<path d="M338.611 87.7387C338.692 88.6457 338.501 89.5561 338.064 90.3547C337.627 91.1534 336.962 91.8044 336.155 92.2253C335.347 92.6462 334.433 92.8182 333.528 92.7195C332.623 92.6207 331.767 92.2557 331.07 91.6706C330.372 91.0854 329.864 90.3065 329.609 89.4324C329.354 88.5582 329.364 87.6281 329.638 86.7598C329.912 85.8914 330.437 85.1238 331.148 84.5541C331.858 83.9845 332.721 83.6383 333.629 83.5594C334.843 83.4538 336.05 83.8346 336.985 84.6182C337.919 85.4017 338.504 86.5241 338.611 87.7387Z" fill="#F5F5F5"/>
<path d="M289.992 118.119C290.072 119.026 289.882 119.936 289.444 120.735C289.007 121.533 288.343 122.184 287.535 122.605C286.728 123.026 285.814 123.198 284.908 123.099C284.003 123.001 283.148 122.636 282.45 122.05C281.752 121.465 281.244 120.686 280.989 119.812C280.734 118.938 280.745 118.008 281.019 117.14C281.292 116.271 281.818 115.504 282.528 114.934C283.238 114.364 284.102 114.018 285.009 113.939C286.224 113.834 287.431 114.214 288.365 114.998C289.299 115.782 289.884 116.904 289.992 118.119Z" fill="#F5F5F5"/>
<path d="M315.431 115.902C315.51 116.807 315.318 117.715 314.881 118.511C314.443 119.308 313.779 119.956 312.973 120.375C312.167 120.794 311.255 120.965 310.352 120.865C309.448 120.766 308.595 120.401 307.9 119.817C307.204 119.232 306.697 118.455 306.444 117.582C306.19 116.71 306.2 115.782 306.474 114.915C306.748 114.049 307.272 113.283 307.981 112.715C308.69 112.147 309.551 111.801 310.457 111.723C311.058 111.67 311.663 111.737 312.238 111.919C312.814 112.101 313.348 112.394 313.809 112.782C314.271 113.17 314.652 113.645 314.931 114.181C315.209 114.716 315.379 115.301 315.431 115.902Z" fill="#F5F5F5"/>
<path d="M340.879 113.669C340.959 114.576 340.768 115.486 340.331 116.285C339.894 117.083 339.229 117.734 338.422 118.155C337.615 118.576 336.701 118.748 335.795 118.649C334.89 118.551 334.035 118.186 333.337 117.6C332.639 117.015 332.131 116.236 331.876 115.362C331.621 114.488 331.632 113.558 331.905 112.69C332.179 111.821 332.705 111.054 333.415 110.484C334.125 109.914 334.989 109.568 335.896 109.489C337.111 109.384 338.318 109.764 339.252 110.548C340.186 111.332 340.771 112.454 340.879 113.669Z" fill="#F5F5F5"/>
<path d="M292.259 144.057C292.338 144.962 292.146 145.87 291.709 146.666C291.271 147.463 290.607 148.111 289.801 148.53C288.995 148.949 288.083 149.12 287.18 149.02C286.277 148.921 285.423 148.556 284.728 147.971C284.032 147.387 283.525 146.609 283.272 145.737C283.018 144.865 283.029 143.937 283.302 143.07C283.576 142.204 284.1 141.438 284.809 140.87C285.518 140.302 286.38 139.956 287.285 139.878C287.886 139.824 288.492 139.89 289.068 140.071C289.643 140.253 290.178 140.546 290.64 140.934C291.102 141.323 291.483 141.798 291.761 142.334C292.039 142.87 292.208 143.455 292.259 144.057Z" fill="#F5F5F5"/>
<path d="M317.707 141.823C317.787 142.73 317.597 143.641 317.159 144.44C316.722 145.238 316.058 145.889 315.25 146.31C314.443 146.731 313.529 146.903 312.623 146.804C311.718 146.705 310.863 146.34 310.165 145.755C309.467 145.17 308.959 144.391 308.704 143.517C308.449 142.643 308.46 141.713 308.734 140.845C309.007 139.976 309.533 139.209 310.243 138.639C310.953 138.069 311.817 137.723 312.724 137.644C313.939 137.539 315.146 137.919 316.08 138.703C317.014 139.487 317.599 140.609 317.707 141.823Z" fill="#F5F5F5"/>
<path d="M343.146 139.59C343.226 140.497 343.036 141.407 342.598 142.206C342.161 143.005 341.497 143.656 340.689 144.077C339.882 144.498 338.968 144.67 338.063 144.571C337.157 144.472 336.302 144.107 335.604 143.522C334.907 142.937 334.398 142.158 334.143 141.284C333.889 140.41 333.899 139.479 334.173 138.611C334.447 137.743 334.972 136.975 335.682 136.405C336.393 135.836 337.256 135.49 338.163 135.411C339.378 135.305 340.585 135.686 341.519 136.47C342.453 137.253 343.039 138.375 343.146 139.59Z" fill="#F5F5F5"/>
<path d="M337.647 141.096L285.381 145.664L331.725 89.3545L284.256 93.5084C284.124 93.5211 283.99 93.5072 283.863 93.4675C283.736 93.4278 283.618 93.3631 283.516 93.2772C283.414 93.1913 283.331 93.0859 283.271 92.9672C283.21 92.8486 283.174 92.719 283.165 92.5862C283.141 92.3204 283.224 92.0561 283.396 91.8514C283.567 91.6468 283.813 91.5185 284.078 91.4949L336.353 86.9265L290 143.236L337.486 139.082C337.754 139.061 338.019 139.146 338.225 139.318C338.431 139.491 338.56 139.737 338.586 140.005C338.597 140.138 338.58 140.272 338.539 140.399C338.497 140.526 338.431 140.644 338.344 140.745C338.256 140.847 338.15 140.93 338.03 140.99C337.911 141.05 337.781 141.086 337.647 141.096Z" fill="#E6E6E6"/>
<path d="M338.451 241.626C338.37 241.38 338.219 241.162 338.016 241.002C337.813 240.841 337.567 240.743 337.309 240.721C335.036 240.616 332.885 239.666 331.277 238.056C329.187 235.949 327.96 232.76 327.757 228.97C327.738 228.628 327.589 228.306 327.34 228.071C327.092 227.835 326.763 227.703 326.421 227.701C326.236 227.702 326.053 227.74 325.883 227.814C325.713 227.887 325.56 227.995 325.432 228.129C325.305 228.263 325.206 228.422 325.142 228.596C325.078 228.769 325.049 228.954 325.059 229.139C325.295 233.589 326.801 237.396 329.365 239.959C331.372 241.97 334.035 243.192 336.869 243.403H337.063C337.286 243.42 337.509 243.381 337.713 243.291C337.917 243.201 338.096 243.062 338.233 242.886C338.37 242.71 338.462 242.503 338.5 242.283C338.538 242.064 338.521 241.838 338.451 241.626Z" fill="#F0F0F0"/>
<path d="M335.744 257.861C324.534 256.879 316.446 249.24 313.891 237.311C313.851 237.132 313.847 236.947 313.88 236.766C313.912 236.585 313.982 236.413 314.083 236.26C314.184 236.107 314.315 235.975 314.468 235.874C314.621 235.773 314.794 235.703 314.974 235.67C315.317 235.609 315.669 235.683 315.959 235.875C316.249 236.067 316.454 236.363 316.531 236.702C318.824 247.421 326.015 254.291 335.989 255.162C346.919 256.118 358.653 248.927 360.76 230.806C360.796 230.452 360.97 230.127 361.244 229.901C361.518 229.675 361.869 229.565 362.223 229.596C362.403 229.611 362.577 229.661 362.736 229.745C362.896 229.828 363.037 229.942 363.151 230.081C363.266 230.22 363.351 230.38 363.402 230.553C363.454 230.725 363.47 230.906 363.45 231.085C361.428 248.174 350.193 259.121 335.744 257.861Z" fill="#F0F0F0"/>
<path d="M314.594 225.425C314.414 225.41 314.24 225.36 314.08 225.277C313.921 225.193 313.78 225.079 313.666 224.94C313.551 224.801 313.466 224.641 313.415 224.468C313.363 224.296 313.347 224.115 313.367 223.936C315.38 206.847 326.615 195.891 341.056 197.16C353.746 198.269 362.249 207.744 363.577 222.016C363.591 222.195 363.569 222.375 363.512 222.546C363.456 222.716 363.366 222.874 363.247 223.009C363.129 223.145 362.985 223.255 362.824 223.335C362.663 223.414 362.487 223.46 362.308 223.471C361.955 223.487 361.609 223.366 361.344 223.132C361.079 222.899 360.915 222.571 360.887 222.219C359.66 209.36 352.071 200.84 340.828 199.859C329.94 198.903 318.155 206.086 316.057 224.19C316.042 224.367 315.993 224.54 315.911 224.698C315.829 224.856 315.717 224.996 315.581 225.111C315.445 225.226 315.288 225.312 315.119 225.366C314.949 225.42 314.771 225.44 314.594 225.425Z" fill="#F0F0F0"/>
<path d="M336.293 250.611C334.284 250.449 332.314 249.958 330.465 249.155C330.292 249.08 330.137 248.969 330.01 248.831C329.882 248.692 329.785 248.529 329.723 248.351C329.662 248.173 329.638 247.984 329.654 247.796C329.669 247.608 329.724 247.426 329.813 247.26C329.972 246.97 330.233 246.748 330.545 246.639C330.858 246.529 331.2 246.54 331.505 246.668C333.269 247.426 335.154 247.861 337.072 247.954C345.354 248.428 354.102 242.557 354.965 228.378C355.489 219.639 352.494 212.583 346.911 209.207C346.622 209.032 346.409 208.756 346.313 208.432C346.218 208.108 346.247 207.76 346.395 207.456C346.479 207.288 346.597 207.14 346.741 207.019C346.885 206.899 347.052 206.809 347.232 206.756C347.412 206.703 347.601 206.687 347.787 206.71C347.974 206.733 348.153 206.794 348.315 206.889C354.787 210.798 358.256 218.733 357.663 228.538C356.817 242.21 348.307 251.313 336.911 250.661L336.293 250.611Z" fill="#F0F0F0"/>
<path d="M324.246 242.176C324.091 242.281 323.915 242.354 323.73 242.388C323.545 242.423 323.355 242.419 323.172 242.377C322.988 242.335 322.816 242.255 322.664 242.144C322.513 242.032 322.386 241.89 322.292 241.728C319.785 237.065 318.683 231.776 319.12 226.5C319.915 213.412 327.757 204.504 338.408 204.351C338.596 204.347 338.782 204.383 338.956 204.454C339.129 204.526 339.286 204.632 339.416 204.767C339.547 204.902 339.647 205.063 339.713 205.239C339.778 205.415 339.806 205.602 339.796 205.789C339.775 206.128 339.627 206.446 339.383 206.681C339.139 206.916 338.815 207.051 338.476 207.058C330.574 207.211 322.639 213.184 321.827 226.66C321.416 231.423 322.398 236.202 324.653 240.416C324.822 240.709 324.875 241.055 324.799 241.385C324.724 241.714 324.526 242.003 324.246 242.193V242.176Z" fill="#F0F0F0"/>
<path d="M342.74 241.11C342.612 240.809 342.597 240.472 342.698 240.161C342.799 239.85 343.009 239.586 343.29 239.418C346.852 237.278 349.034 232.785 349.068 227.363C349.068 223.023 347.841 219.351 345.523 217.024C344.623 216.132 343.55 215.434 342.37 214.971C341.191 214.509 339.929 214.292 338.662 214.334C334.491 214.334 331.107 216.627 329.238 220.654C329.094 220.96 328.839 221.2 328.526 221.327C328.212 221.454 327.862 221.458 327.546 221.339C327.369 221.274 327.208 221.172 327.073 221.042C326.937 220.911 326.831 220.754 326.759 220.579C326.688 220.405 326.653 220.218 326.657 220.03C326.662 219.842 326.705 219.657 326.784 219.486C329.102 214.554 333.442 211.635 338.628 211.627C340.253 211.585 341.869 211.872 343.38 212.471C344.89 213.07 346.264 213.969 347.418 215.112C350.252 217.955 351.792 222.312 351.758 227.388C351.708 233.775 349.017 239.139 344.635 241.77C344.469 241.86 344.286 241.915 344.098 241.931C343.909 241.946 343.72 241.922 343.541 241.86C343.363 241.798 343.199 241.699 343.061 241.57C342.923 241.441 342.814 241.284 342.74 241.11Z" fill="#F0F0F0"/>
<path d="M332.994 231.119C332.813 231.192 332.619 231.226 332.424 231.218C332.229 231.209 332.038 231.158 331.865 231.069C331.691 230.98 331.539 230.854 331.418 230.701C331.298 230.547 331.212 230.369 331.167 230.18C331.074 229.816 331.006 229.435 330.947 229.046C330.177 223.97 332.901 219.579 337.275 218.793C338.293 218.571 339.349 218.591 340.359 218.851C341.368 219.111 342.302 219.604 343.087 220.29C343.234 220.421 343.35 220.583 343.426 220.765C343.501 220.947 343.535 221.143 343.525 221.34C343.514 221.537 343.459 221.729 343.365 221.901C343.27 222.074 343.137 222.223 342.977 222.337L342.892 222.396C342.639 222.573 342.332 222.657 342.024 222.633C341.716 222.61 341.425 222.482 341.2 222.27C340.726 221.869 340.165 221.584 339.561 221.437C338.958 221.29 338.329 221.286 337.723 221.424C334.39 222.024 333.121 225.493 333.595 228.606C333.645 228.911 333.696 229.207 333.772 229.452C333.854 229.771 333.818 230.108 333.67 230.402C333.522 230.696 333.273 230.927 332.969 231.051L332.994 231.119Z" fill="#F0F0F0"/>
<path d="M337.469 236.33C337.256 236.309 337.052 236.234 336.875 236.112C336.699 235.99 336.557 235.826 336.462 235.633C336.367 235.441 336.323 235.228 336.333 235.014C336.344 234.8 336.409 234.592 336.522 234.41L336.64 234.224C336.762 234.03 336.934 233.873 337.138 233.77C337.343 233.667 337.571 233.622 337.799 233.64C338.224 233.664 338.65 233.639 339.068 233.564C341.979 233.039 343.298 230.332 343.298 227.574C343.29 227.243 343.402 226.92 343.613 226.665C343.825 226.409 344.122 226.24 344.449 226.187C344.637 226.158 344.828 226.169 345.012 226.219C345.195 226.27 345.365 226.358 345.512 226.478C345.659 226.599 345.779 226.749 345.864 226.919C345.949 227.088 345.997 227.274 346.006 227.464C346.082 231.88 343.468 235.526 339.551 236.229C338.865 236.355 338.165 236.39 337.469 236.33Z" fill="#F0F0F0"/>
<path d="M338.07 231.33C337.387 231.273 336.739 231.003 336.217 230.558C335.695 230.114 335.325 229.517 335.16 228.851C335.112 228.664 335.11 228.467 335.153 228.279C335.197 228.09 335.284 227.914 335.409 227.766C335.534 227.618 335.693 227.502 335.871 227.427C336.05 227.353 336.244 227.322 336.437 227.337H336.75C336.987 227.362 337.212 227.455 337.396 227.605C337.581 227.756 337.718 227.956 337.791 228.183C337.82 228.301 337.886 228.407 337.978 228.486C338.071 228.565 338.186 228.613 338.307 228.623C338.958 228.682 339.068 227.777 339.085 227.557C339.124 227.228 339.063 226.894 338.908 226.601C338.674 226.319 338.554 225.96 338.569 225.594C338.591 225.326 338.692 225.069 338.86 224.858C339.028 224.647 339.255 224.492 339.512 224.411C339.77 224.33 340.045 224.328 340.304 224.404C340.562 224.481 340.792 224.633 340.963 224.841C341.624 225.676 341.928 226.737 341.809 227.794C341.589 230.019 340.024 231.499 338.07 231.33Z" fill="#F0F0F0"/>
<path d="M312.622 201.052C312.445 201.037 312.273 200.987 312.116 200.906C311.958 200.824 311.818 200.712 311.704 200.576C311.59 200.44 311.504 200.282 311.451 200.113C311.398 199.943 311.379 199.765 311.396 199.588L312.419 187.854L324.153 188.886C324.33 188.901 324.502 188.951 324.66 189.033C324.818 189.115 324.957 189.227 325.071 189.363C325.186 189.499 325.271 189.656 325.324 189.826C325.377 189.995 325.396 190.173 325.38 190.35C325.365 190.527 325.315 190.7 325.234 190.858C325.152 191.016 325.04 191.156 324.904 191.271C324.768 191.386 324.611 191.472 324.442 191.526C324.272 191.58 324.094 191.6 323.916 191.585L314.881 190.79L314.094 199.825C314.078 200.002 314.028 200.175 313.945 200.332C313.862 200.49 313.75 200.63 313.613 200.744C313.476 200.858 313.318 200.944 313.148 200.997C312.978 201.049 312.8 201.068 312.622 201.052Z" fill="#F0F0F0"/>
<path d="M368.399 205.933C368.222 205.918 368.05 205.869 367.892 205.787C367.735 205.705 367.595 205.593 367.481 205.457C367.367 205.321 367.281 205.164 367.228 204.994C367.175 204.825 367.156 204.647 367.172 204.47L367.959 195.434L358.924 194.648C358.747 194.632 358.574 194.581 358.417 194.498C358.259 194.416 358.119 194.303 358.005 194.166C357.891 194.029 357.806 193.871 357.753 193.702C357.7 193.532 357.681 193.353 357.697 193.176C357.712 192.999 357.762 192.827 357.844 192.669C357.925 192.511 358.038 192.372 358.174 192.258C358.31 192.143 358.467 192.057 358.636 192.005C358.806 191.952 358.984 191.933 359.161 191.949L370.895 192.973L369.871 204.732C369.833 205.085 369.657 205.41 369.381 205.634C369.106 205.859 368.753 205.967 368.399 205.933Z" fill="#F0F0F0"/>
<path d="M364.245 269.028L352.511 268.004C352.334 267.988 352.162 267.938 352.004 267.855C351.846 267.772 351.707 267.659 351.593 267.523C351.479 267.386 351.393 267.228 351.34 267.058C351.287 266.888 351.268 266.71 351.285 266.532C351.299 266.355 351.349 266.183 351.431 266.026C351.513 265.868 351.625 265.728 351.761 265.614C351.897 265.5 352.054 265.414 352.224 265.361C352.393 265.308 352.571 265.289 352.748 265.306L361.783 266.092L362.57 257.066C362.585 256.888 362.635 256.714 362.717 256.556C362.799 256.397 362.912 256.256 363.049 256.141C363.186 256.027 363.344 255.94 363.515 255.887C363.685 255.833 363.864 255.814 364.042 255.83C364.219 255.845 364.391 255.895 364.549 255.977C364.707 256.059 364.846 256.171 364.96 256.307C365.074 256.443 365.16 256.6 365.213 256.77C365.266 256.939 365.285 257.117 365.269 257.294L364.245 269.028Z" fill="#F0F0F0"/>
<path d="M317.504 264.916L305.77 263.884L306.793 252.159C306.828 251.801 307.001 251.471 307.277 251.24C307.552 251.009 307.907 250.895 308.265 250.924C308.443 250.94 308.615 250.99 308.773 251.073C308.93 251.156 309.07 251.268 309.184 251.405C309.298 251.542 309.384 251.7 309.437 251.87C309.49 252.04 309.508 252.218 309.492 252.396L308.705 261.414L317.732 262.209C317.909 262.224 318.082 262.274 318.24 262.355C318.398 262.437 318.538 262.549 318.653 262.685C318.768 262.821 318.855 262.978 318.909 263.148C318.962 263.317 318.982 263.496 318.967 263.673C318.937 264.031 318.766 264.363 318.492 264.596C318.218 264.829 317.863 264.945 317.504 264.916Z" fill="#F0F0F0"/>
<path d="M63.2216 239.528C63.0011 239.545 62.783 239.474 62.6138 239.332C62.4446 239.189 62.3378 238.987 62.3164 238.767L61.6903 231.559L68.8982 230.924C69.1187 230.908 69.3368 230.978 69.506 231.12C69.6752 231.263 69.782 231.466 69.8035 231.686C69.8177 231.905 69.7462 232.121 69.6041 232.288C69.4621 232.455 69.2605 232.561 69.042 232.582L63.4923 233.073L63.9745 238.623C63.9912 238.842 63.9219 239.059 63.7814 239.228C63.6408 239.397 63.4401 239.504 63.2216 239.528Z" fill="#E0E0E0"/>
<path d="M97.5184 236.525C97.2993 236.541 97.0823 236.472 96.9133 236.332C96.7444 236.191 96.6367 235.99 96.6132 235.772L96.131 230.214L90.5727 230.704C90.3523 230.721 90.1341 230.65 89.965 230.508C89.7958 230.366 89.689 230.163 89.6675 229.943C89.651 229.722 89.7214 229.504 89.8637 229.335C90.006 229.166 90.2089 229.059 90.4289 229.038L97.6369 228.412L98.2714 235.619C98.288 235.839 98.2187 236.056 98.0782 236.225C97.9377 236.393 97.7369 236.501 97.5184 236.525Z" fill="#E0E0E0"/>
<path d="M101.072 267.581L93.8552 268.216C93.6348 268.232 93.4166 268.162 93.2474 268.02C93.0782 267.877 92.9715 267.674 92.95 267.454C92.9335 267.234 93.0039 267.016 93.1462 266.847C93.2885 266.677 93.4914 266.571 93.7114 266.549L99.2612 266.067L98.7789 260.517C98.7623 260.298 98.8316 260.081 98.9721 259.912C99.1126 259.743 99.3134 259.636 99.5319 259.612C99.751 259.595 99.968 259.665 100.137 259.805C100.306 259.946 100.414 260.146 100.437 260.365L101.072 267.581Z" fill="#E0E0E0"/>
<path d="M72.3246 270.094L65.142 270.72L64.5075 263.504C64.4933 263.285 64.5648 263.069 64.7068 262.901C64.8489 262.734 65.0505 262.628 65.2689 262.607C65.4866 262.592 65.7015 262.663 65.8686 262.803C66.0357 262.943 66.1421 263.143 66.1657 263.36L66.6564 268.918L72.2061 268.427C72.4266 268.411 72.6447 268.481 72.8139 268.624C72.9831 268.766 73.0898 268.969 73.1113 269.189C73.1194 269.3 73.1054 269.412 73.0702 269.517C73.035 269.623 72.9792 269.721 72.9061 269.805C72.833 269.889 72.744 269.958 72.6442 270.007C72.5444 270.057 72.4357 270.086 72.3246 270.094Z" fill="#E0E0E0"/>
<path d="M96.9347 119.286L69.372 121.655L68.8052 115.2C68.7637 112.119 69.8887 109.137 71.9544 106.851C74.0201 104.565 76.8738 103.145 79.9429 102.875C83.0121 102.605 86.0698 103.506 88.5026 105.396C90.9354 107.287 92.5634 110.027 93.06 113.068L93.3815 116.824L97.3661 116.477L97.0362 112.721C96.8506 110.602 96.2496 108.541 95.2674 106.655C94.2853 104.768 92.9411 103.094 91.3118 101.727C89.6825 100.36 87.8 99.3274 85.7716 98.688C83.7432 98.0487 81.6088 97.8151 79.4901 98.0006C75.2113 98.3753 71.2566 100.434 68.496 103.725C67.1291 105.354 66.0965 107.237 65.4571 109.265C64.8178 111.294 64.5842 113.428 64.7697 115.547L65.3366 122.044C63.7671 122.351 62.3666 123.228 61.4046 124.505C60.4425 125.783 59.9869 127.371 60.1252 128.964L62.0964 151.502C62.1667 152.352 62.4043 153.181 62.7957 153.939C63.187 154.698 63.7243 155.371 64.3768 155.922C65.0293 156.472 65.784 156.888 66.5977 157.146C67.4113 157.403 68.2679 157.498 69.1182 157.424L100.023 154.725C100.873 154.655 101.702 154.417 102.46 154.026C103.219 153.634 103.892 153.097 104.443 152.445C104.993 151.792 105.409 151.037 105.667 150.224C105.924 149.41 106.019 148.553 105.945 147.703L103.973 125.166C103.898 124.317 103.656 123.492 103.261 122.737C102.866 121.982 102.327 121.313 101.673 120.767C101.019 120.22 100.264 119.809 99.4512 119.555C98.6382 119.301 97.783 119.209 96.9347 119.286ZM85.2091 136.654L85.8859 144.412C85.9314 144.724 85.9128 145.043 85.831 145.347C85.7493 145.652 85.6061 145.937 85.4104 146.185C85.2147 146.432 84.9706 146.637 84.6929 146.787C84.4152 146.937 84.1098 147.028 83.7955 147.056C83.4812 147.084 83.1645 147.047 82.8649 146.948C82.5653 146.849 82.2891 146.69 82.0531 146.48C81.8172 146.271 81.6265 146.015 81.4927 145.73C81.3589 145.444 81.2849 145.134 81.2752 144.818L80.5984 137.052C79.9005 136.623 79.3556 135.986 79.0413 135.229C78.727 134.473 78.6593 133.637 78.8479 132.84C79.0365 132.043 79.4717 131.325 80.0916 130.79C80.7116 130.255 81.4845 129.929 82.3005 129.859C83.1165 129.788 83.9339 129.977 84.6363 130.398C85.3387 130.82 85.8903 131.452 86.2126 132.205C86.5349 132.958 86.6113 133.793 86.4312 134.592C86.251 135.391 85.8233 136.113 85.2091 136.654Z" fill="#EBEBEB"/>
<path d="M144.192 132.306L141.409 127.746C140.006 127.946 138.582 127.946 137.179 127.746L134.387 132.289L133.854 132.145C132.045 131.669 130.309 130.949 128.694 130.005L128.22 129.734L129.396 124.793C129.418 124.698 129.46 124.607 129.518 124.528C129.576 124.448 129.649 124.381 129.733 124.329C129.818 124.278 129.911 124.244 130.009 124.23C130.106 124.215 130.205 124.22 130.301 124.244C130.493 124.29 130.658 124.41 130.761 124.578C130.864 124.746 130.897 124.948 130.851 125.14L129.92 128.99C131.122 129.645 132.39 130.172 133.702 130.563L136.426 126.113L136.925 126.198C138.505 126.452 140.116 126.452 141.697 126.198L142.187 126.113L144.911 130.563C146.224 130.175 147.492 129.648 148.693 128.99L147.483 123.914L147.889 123.618C148.991 122.823 149.979 121.881 150.825 120.817C150.942 120.664 151.115 120.563 151.306 120.534C151.497 120.506 151.691 120.553 151.849 120.665C151.931 120.722 152.001 120.795 152.054 120.88C152.107 120.965 152.142 121.06 152.157 121.159C152.172 121.258 152.166 121.359 152.141 121.456C152.116 121.553 152.071 121.644 152.009 121.722C151.178 122.772 150.22 123.716 149.158 124.531L150.402 129.717L149.92 129.988C148.307 130.93 146.573 131.65 144.768 132.128L144.192 132.306ZM127.086 122.374C126.858 122.112 126.629 121.832 126.409 121.528L121.223 122.772L120.944 122.298C120.007 120.679 119.288 118.944 118.804 117.137L118.668 116.604L123.211 113.812C123.012 112.409 123.012 110.985 123.211 109.582L118.668 106.799L118.804 106.258C119.288 104.454 120.007 102.721 120.944 101.105L121.223 100.623L126.409 101.867C127.275 100.734 128.288 99.721 129.421 98.8551L128.482 94.9297C128.436 94.7378 128.468 94.5357 128.571 94.3675C128.675 94.1994 128.84 94.0791 129.032 94.0329C129.126 94.0103 129.224 94.0066 129.32 94.0221C129.416 94.0375 129.508 94.0718 129.591 94.1229C129.673 94.174 129.745 94.241 129.801 94.3199C129.858 94.3988 129.898 94.4882 129.92 94.5828L131.096 99.4727L130.69 99.7603C129.387 100.698 128.244 101.841 127.306 103.144L127.01 103.55L121.934 102.341C121.276 103.541 120.749 104.809 120.36 106.122L124.802 108.846L124.726 109.337C124.443 110.915 124.443 112.531 124.726 114.108L124.802 114.608L120.36 117.332C120.75 118.642 121.278 119.906 121.934 121.105L127.01 119.895L127.306 120.301C127.569 120.685 127.851 121.055 128.152 121.409C128.282 121.546 128.355 121.728 128.355 121.917C128.355 122.106 128.282 122.288 128.152 122.425C128.08 122.494 127.995 122.547 127.901 122.582C127.808 122.617 127.708 122.633 127.608 122.628C127.509 122.623 127.411 122.598 127.321 122.555C127.231 122.511 127.151 122.449 127.086 122.374ZM157.322 122.788L155.41 122.332C155.218 122.285 155.053 122.165 154.95 121.997C154.847 121.829 154.814 121.627 154.86 121.435C154.906 121.243 155.027 121.078 155.195 120.974C155.363 120.871 155.565 120.839 155.757 120.885L156.603 121.08C157.257 119.881 157.781 118.616 158.168 117.306L153.727 114.582L153.811 114.083C154.094 112.505 154.094 110.89 153.811 109.312L153.727 108.821L158.168 106.097C157.783 104.784 157.258 103.516 156.603 102.315L151.527 103.525L151.239 103.119C150.299 101.817 149.157 100.675 147.855 99.7349L147.449 99.4473L148.659 94.3713C147.458 93.7161 146.19 93.1914 144.878 92.8062L142.128 97.29L141.637 97.2054C140.057 96.9515 138.446 96.9515 136.866 97.2054L136.367 97.29L133.668 92.8231L133.16 92.9754C132.98 93.035 132.783 93.0214 132.612 92.9376C132.441 92.8537 132.31 92.7064 132.247 92.527C132.212 92.4343 132.196 92.3356 132.199 92.2366C132.203 92.1377 132.227 92.0404 132.268 91.9506C132.31 91.8608 132.369 91.7802 132.443 91.7136C132.516 91.6469 132.602 91.5956 132.695 91.5626C133.067 91.4441 133.448 91.3342 133.82 91.2326L134.353 91.0888L137.145 95.6403C138.547 95.4318 139.973 95.4318 141.375 95.6403L144.158 91.0888L144.7 91.2326C146.505 91.7145 148.237 92.4343 149.852 93.373L150.334 93.6522L149.091 98.8382C150.225 99.7021 151.238 100.715 152.102 101.85L157.288 100.606L157.568 101.089C158.508 102.703 159.228 104.435 159.708 106.241L159.852 106.782L155.3 109.565C155.511 110.968 155.511 112.393 155.3 113.795L159.852 116.587L159.708 117.12C159.228 118.928 158.508 120.664 157.568 122.281L157.322 122.788ZM139.065 118.948C137.222 118.875 135.474 118.11 134.169 116.805C132.865 115.501 132.1 113.752 132.027 111.909C131.976 110.096 132.607 108.329 133.794 106.958C134.98 105.586 136.638 104.709 138.439 104.498C138.545 104.485 138.652 104.494 138.754 104.526C138.856 104.557 138.95 104.609 139.03 104.68C139.11 104.75 139.174 104.837 139.218 104.934C139.262 105.031 139.285 105.136 139.285 105.242C139.285 105.422 139.218 105.596 139.098 105.73C138.978 105.864 138.813 105.949 138.634 105.97C137.38 106.113 136.208 106.664 135.298 107.537C134.387 108.411 133.789 109.559 133.594 110.806C133.4 112.052 133.62 113.329 134.221 114.438C134.822 115.547 135.77 116.429 136.921 116.947C138.071 117.465 139.36 117.591 140.589 117.306C141.818 117.021 142.92 116.34 143.724 115.368C144.529 114.396 144.993 113.187 145.043 111.926C145.094 110.666 144.73 109.423 144.006 108.39C143.902 108.243 143.856 108.063 143.878 107.884C143.9 107.706 143.988 107.542 144.125 107.425C144.204 107.355 144.296 107.302 144.397 107.271C144.498 107.24 144.604 107.23 144.709 107.243C144.814 107.255 144.915 107.29 145.005 107.345C145.095 107.4 145.173 107.473 145.233 107.56C146.002 108.661 146.451 109.955 146.527 111.296C146.604 112.637 146.306 113.973 145.667 115.154C145.028 116.336 144.073 117.316 142.909 117.986C141.744 118.656 140.417 118.989 139.074 118.948H139.065Z" fill="#F0F0F0"/>
<path d="M91.6303 194.233L89.8283 191.298C88.9168 191.433 87.9903 191.433 87.0788 191.298L85.2768 194.233L84.9299 194.14C83.7621 193.832 82.6409 193.368 81.5967 192.761L81.2921 192.583L82.0535 189.386C82.0837 189.263 82.1609 189.157 82.2685 189.09C82.3761 189.024 82.5055 189.002 82.6288 189.03C82.6905 189.045 82.7487 189.072 82.8 189.109C82.8513 189.147 82.8947 189.194 82.9277 189.248C82.9607 189.303 82.9827 189.363 82.9924 189.426C83.0021 189.488 82.9993 189.552 82.9841 189.614L82.3919 192.101C83.1681 192.526 83.9878 192.867 84.8369 193.116L86.5966 190.248L86.9096 190.299C87.9319 190.468 88.9751 190.468 89.9975 190.299L90.3105 190.248L92.0786 193.116C92.9231 192.861 93.7395 192.521 94.5151 192.101L93.7368 188.836L93.9991 188.641C94.7103 188.13 95.3479 187.524 95.8941 186.839C95.9684 186.739 96.0795 186.671 96.2031 186.652C96.3267 186.633 96.4529 186.664 96.554 186.738C96.6059 186.775 96.65 186.822 96.6837 186.876C96.7174 186.93 96.74 186.99 96.7502 187.053C96.7605 187.116 96.7581 187.18 96.7433 187.242C96.7285 187.304 96.7015 187.363 96.664 187.414C96.125 188.093 95.5057 188.704 94.8197 189.233L95.6657 192.617L95.3527 192.795C94.3091 193.403 93.1878 193.867 92.0194 194.174L91.6303 194.233ZM80.5815 187.812L80.1416 187.279L76.7576 188.074L76.5799 187.77C75.9839 186.721 75.5315 185.597 75.2348 184.428L75.1417 184.081L78.0773 182.279C77.942 181.368 77.942 180.441 78.0773 179.53L75.1417 177.728L75.2348 177.381C75.5414 176.212 76.0053 175.091 76.6138 174.048L76.7914 173.735L80.1754 174.581C80.7196 173.84 81.3533 173.169 82.062 172.584L81.4613 170.046C81.4463 169.985 81.4436 169.921 81.4534 169.859C81.4631 169.797 81.4852 169.737 81.5183 169.684C81.5514 169.63 81.5948 169.584 81.646 169.547C81.6973 169.511 81.7553 169.485 81.8167 169.471C81.94 169.443 82.0694 169.464 82.177 169.531C82.2846 169.597 82.3618 169.703 82.3919 169.826L83.1533 172.982L82.8826 173.176C82.0442 173.778 81.3098 174.512 80.7084 175.35L80.5138 175.613L77.2483 174.834C76.8281 175.61 76.488 176.426 76.2331 177.271L79.101 179.031L79.0502 179.352C78.963 179.861 78.9177 180.376 78.9149 180.892C78.9177 181.411 78.963 181.928 79.0502 182.44L79.101 182.753L76.2331 184.513C76.4864 185.36 76.8266 186.18 77.2483 186.958L80.5138 186.171L80.7084 186.433C80.8832 186.684 81.0725 186.924 81.2752 187.152C81.3585 187.24 81.4049 187.357 81.4049 187.478C81.4049 187.599 81.3585 187.716 81.2752 187.804C81.2315 187.852 81.1783 187.89 81.1189 187.917C81.0595 187.944 80.9953 187.958 80.9302 187.959C80.8651 187.96 80.8006 187.947 80.7406 187.922C80.6806 187.896 80.6264 187.859 80.5815 187.812ZM100.116 188.074L98.8805 187.787C98.8188 187.772 98.7606 187.745 98.7093 187.707C98.658 187.67 98.6146 187.623 98.5816 187.569C98.5486 187.514 98.5266 187.454 98.5169 187.391C98.5072 187.329 98.51 187.265 98.5252 187.203C98.5391 187.141 98.5651 187.083 98.6017 187.032C98.6383 186.981 98.6847 186.938 98.7383 186.905C98.7918 186.871 98.8514 186.849 98.9136 186.84C98.9758 186.83 99.0393 186.833 99.1004 186.848L99.6334 186.974C100.059 186.198 100.399 185.379 100.649 184.53L97.7807 182.77L97.8314 182.457C97.9187 181.945 97.964 181.428 97.9668 180.909C97.964 180.393 97.9187 179.878 97.8314 179.369L97.7807 179.047L100.649 177.288C100.397 176.442 100.057 175.625 99.6334 174.851L96.3679 175.63L96.1733 175.367C95.5719 174.529 94.8374 173.795 93.9991 173.193L93.7368 172.999L94.5151 169.733C93.7412 169.309 92.9244 168.969 92.0786 168.718L90.3105 171.586L89.9975 171.535C88.9751 171.366 87.9319 171.366 86.9096 171.535L86.5966 171.586L84.8369 168.718L84.5069 168.819C84.3891 168.857 84.2612 168.847 84.1505 168.792C84.0399 168.737 83.9552 168.64 83.9147 168.523C83.892 168.464 83.8814 168.401 83.8836 168.337C83.8858 168.273 83.9007 168.211 83.9276 168.153C83.9544 168.096 83.9926 168.044 84.0398 168.002C84.087 167.959 84.1423 167.926 84.2024 167.906L84.9299 167.686L85.2768 167.601L87.0788 170.537C87.9903 170.401 88.9168 170.401 89.8283 170.537L91.6303 167.601L91.9771 167.686C93.1446 167.999 94.2654 168.465 95.3104 169.073L95.6234 169.251L94.7774 172.635C95.5058 173.198 96.1597 173.852 96.7232 174.581L100.107 173.735L100.285 174.048C100.893 175.091 101.357 176.212 101.664 177.381L101.757 177.728L98.8213 179.53C98.9567 180.441 98.9567 181.368 98.8213 182.279L101.757 184.081L101.664 184.428C101.356 185.596 100.892 186.717 100.285 187.761L100.116 188.074ZM88.3224 185.595C87.1729 185.517 86.0926 185.017 85.2881 184.192C84.4835 183.367 84.011 182.275 83.9607 181.124C83.9105 179.973 84.2861 178.843 85.0157 177.952C85.7454 177.06 86.778 176.468 87.9163 176.289C87.9842 176.282 88.0528 176.29 88.1177 176.311C88.1827 176.331 88.2425 176.366 88.2935 176.411C88.3444 176.456 88.3853 176.512 88.4136 176.574C88.4419 176.636 88.457 176.703 88.4578 176.772C88.4584 176.889 88.4156 177.002 88.3374 177.09C88.2593 177.177 88.1514 177.233 88.0348 177.245C87.3212 177.327 86.6465 177.613 86.0919 178.07C85.5374 178.526 85.1268 179.134 84.9096 179.818C84.6924 180.503 84.678 181.236 84.8679 181.928C85.0579 182.621 85.4441 183.244 85.9802 183.722C86.5162 184.2 87.1791 184.513 87.8889 184.622C88.5987 184.732 89.3251 184.634 89.9805 184.34C90.6358 184.047 91.1922 183.57 91.5826 182.967C91.9729 182.364 92.1804 181.661 92.1802 180.942C92.1818 180.179 91.9452 179.434 91.5034 178.811C91.4388 178.714 91.4109 178.598 91.4249 178.483C91.4389 178.368 91.4938 178.262 91.5795 178.185C91.6305 178.139 91.6906 178.104 91.7559 178.084C91.8212 178.063 91.8901 178.056 91.9582 178.064C92.0262 178.072 92.0918 178.095 92.1505 178.13C92.2092 178.165 92.2597 178.213 92.2986 178.269C92.7934 178.981 93.0811 179.816 93.1297 180.682C93.1782 181.547 92.9858 182.409 92.5738 183.172C92.1617 183.935 91.5462 184.568 90.7957 185.002C90.0451 185.436 89.189 185.653 88.3224 185.629V185.595Z" fill="#E6E6E6"/>
<path d="M211.5 361.25C302.092 361.25 375.531 356.963 375.531 351.674C375.531 346.385 302.092 342.097 211.5 342.097C120.908 342.097 47.4691 346.385 47.4691 351.674C47.4691 356.963 120.908 361.25 211.5 361.25Z" fill="#F5F5F5"/>
<path d="M307.479 123.372H279.933L260.475 346.082H288.021C291.887 346.007 295.592 344.52 298.438 341.902C301.283 339.284 303.073 335.715 303.469 331.869L320.465 137.577C320.662 135.766 320.472 133.935 319.906 132.204C319.34 130.473 318.412 128.883 317.183 127.539C315.954 126.195 314.453 125.128 312.78 124.409C311.107 123.691 309.299 123.337 307.479 123.372Z" fill="#407BFF"/>
<path d="M301.861 123.372H208.632C204.766 123.445 201.06 124.929 198.212 127.546C195.365 130.162 193.574 133.73 193.176 137.577L176.179 331.869C175.984 333.678 176.175 335.508 176.74 337.237C177.306 338.967 178.232 340.556 179.459 341.9C180.685 343.244 182.183 344.312 183.854 345.033C185.525 345.754 187.329 346.112 189.149 346.082H282.369C286.231 345.999 289.929 344.509 292.769 341.892C295.609 339.275 297.395 335.711 297.792 331.869L314.788 137.577C314.985 135.771 314.796 133.945 314.233 132.218C313.671 130.492 312.748 128.904 311.526 127.561C310.304 126.218 308.81 125.15 307.144 124.428C305.478 123.706 303.677 123.346 301.861 123.372Z" fill="#407BFF"/>
<path opacity="0.3" d="M301.861 123.372H208.632C204.766 123.445 201.06 124.929 198.212 127.546C195.365 130.162 193.574 133.73 193.176 137.577L176.179 331.869C175.984 333.678 176.175 335.508 176.74 337.237C177.306 338.967 178.232 340.556 179.459 341.9C180.685 343.244 182.183 344.312 183.854 345.033C185.525 345.754 187.329 346.112 189.149 346.082H282.369C286.231 345.999 289.929 344.509 292.769 341.892C295.609 339.275 297.395 335.711 297.792 331.869L314.788 137.577C314.985 135.771 314.796 133.945 314.233 132.218C313.671 130.492 312.748 128.904 311.526 127.561C310.304 126.218 308.81 125.15 307.144 124.428C305.478 123.706 303.677 123.346 301.861 123.372Z" fill="white"/>
<path opacity="0.4" d="M301.464 127.924H276.879C276.146 127.93 275.432 128.155 274.828 128.572C274.225 128.988 273.761 129.576 273.495 130.259C272.525 132.768 270.83 134.931 268.626 136.473C266.421 138.014 263.807 138.864 261.118 138.913H246.617C244.085 138.964 241.613 138.13 239.629 136.555C237.644 134.98 236.271 132.762 235.746 130.284C235.606 129.613 235.236 129.013 234.7 128.587C234.164 128.16 233.496 127.935 232.811 127.949H208.234C205.607 127.995 203.087 129.003 201.152 130.782C199.218 132.561 198.002 134.987 197.736 137.602L180.731 331.894C180.595 333.124 180.723 334.37 181.106 335.546C181.489 336.723 182.119 337.805 182.953 338.719C183.787 339.634 184.807 340.36 185.944 340.849C187.081 341.338 188.309 341.579 189.546 341.556H282.775C285.404 341.507 287.924 340.497 289.858 338.717C291.793 336.937 293.008 334.51 293.274 331.894L310.271 137.602C310.409 136.371 310.284 135.125 309.902 133.947C309.521 132.768 308.892 131.685 308.058 130.769C307.225 129.853 306.205 129.125 305.068 128.634C303.931 128.144 302.702 127.901 301.464 127.924Z" fill="white"/>
<path d="M278.232 233.496H212.989C212.541 233.503 212.096 233.415 211.684 233.238C211.272 233.06 210.903 232.797 210.6 232.466C210.298 232.135 210.069 231.743 209.93 231.317C209.79 230.89 209.743 230.439 209.791 229.994L210.121 226.254C210.218 225.306 210.659 224.426 211.36 223.781C212.062 223.136 212.975 222.77 213.928 222.752H279.18C279.628 222.744 280.073 222.832 280.485 223.01C280.897 223.188 281.266 223.451 281.569 223.782C281.871 224.113 282.1 224.505 282.239 224.931C282.379 225.357 282.426 225.808 282.378 226.254L282.056 229.994C281.957 230.944 281.513 231.825 280.809 232.47C280.104 233.116 279.188 233.48 278.232 233.496Z" fill="white"/>
<path d="M276.828 249.57H211.576C211.128 249.578 210.683 249.49 210.272 249.312C209.861 249.134 209.492 248.871 209.19 248.539C208.888 248.208 208.661 247.816 208.522 247.39C208.384 246.964 208.337 246.513 208.387 246.068L208.708 242.328C208.807 241.381 209.248 240.502 209.949 239.857C210.65 239.212 211.563 238.845 212.515 238.826H277.767C278.216 238.818 278.66 238.906 279.072 239.084C279.484 239.262 279.853 239.525 280.156 239.856C280.458 240.187 280.687 240.579 280.826 241.005C280.966 241.431 281.013 241.882 280.965 242.328L280.635 246.068C280.536 247.015 280.095 247.894 279.394 248.539C278.693 249.184 277.781 249.55 276.828 249.57Z" fill="white"/>
<path opacity="0.1" d="M258.411 131.561C258.303 132.614 257.813 133.591 257.034 134.307C256.254 135.022 255.239 135.427 254.181 135.445C253.683 135.454 253.19 135.356 252.733 135.16C252.276 134.963 251.866 134.671 251.531 134.304C251.195 133.937 250.942 133.502 250.788 133.029C250.634 132.556 250.582 132.056 250.636 131.561C250.744 130.509 251.234 129.532 252.013 128.816C252.793 128.1 253.808 127.696 254.866 127.678C255.363 127.669 255.857 127.766 256.314 127.963C256.771 128.16 257.18 128.451 257.516 128.819C257.851 129.186 258.104 129.621 258.259 130.094C258.413 130.567 258.465 131.067 258.411 131.561Z" fill="black"/>
<path opacity="0.1" d="M256.651 131.561C256.591 132.136 256.324 132.669 255.898 133.06C255.473 133.451 254.919 133.674 254.341 133.685C254.069 133.69 253.799 133.637 253.549 133.53C253.299 133.423 253.075 133.263 252.892 133.062C252.708 132.861 252.57 132.623 252.486 132.364C252.402 132.106 252.374 131.832 252.404 131.561C252.462 130.986 252.729 130.452 253.155 130.06C253.581 129.669 254.135 129.448 254.714 129.438C254.985 129.434 255.255 129.488 255.504 129.596C255.753 129.704 255.977 129.863 256.16 130.064C256.343 130.265 256.482 130.502 256.566 130.76C256.651 131.018 256.68 131.291 256.651 131.561Z" fill="black"/>
<g opacity="0.8">
<path d="M289.983 138.042C289.837 138.044 289.693 138.015 289.559 137.957C289.425 137.899 289.304 137.813 289.206 137.705C289.108 137.597 289.033 137.469 288.988 137.331C288.943 137.192 288.927 137.045 288.943 136.9L289.129 134.819C289.16 134.511 289.303 134.226 289.531 134.017C289.758 133.808 290.055 133.69 290.364 133.685C290.509 133.683 290.653 133.712 290.787 133.769C290.92 133.827 291.04 133.912 291.138 134.019C291.236 134.126 291.311 134.253 291.357 134.39C291.403 134.528 291.419 134.674 291.405 134.819L291.219 136.9C291.188 137.208 291.045 137.494 290.817 137.705C290.59 137.915 290.293 138.035 289.983 138.042Z" fill="white"/>
<path d="M299.086 138.042C298.94 138.044 298.796 138.015 298.662 137.957C298.528 137.899 298.407 137.813 298.309 137.705C298.211 137.597 298.136 137.469 298.091 137.331C298.046 137.192 298.03 137.045 298.046 136.9L298.477 132.018C298.508 131.711 298.651 131.425 298.879 131.216C299.107 131.007 299.403 130.889 299.712 130.885C299.858 130.883 300.002 130.912 300.135 130.969C300.268 131.027 300.388 131.112 300.486 131.219C300.584 131.326 300.659 131.452 300.705 131.59C300.751 131.728 300.767 131.874 300.753 132.018L300.322 136.9C300.291 137.208 300.148 137.494 299.92 137.705C299.693 137.915 299.396 138.035 299.086 138.042Z" fill="white"/>
<path d="M294.535 138.042C294.389 138.044 294.244 138.015 294.11 137.957C293.976 137.899 293.856 137.813 293.758 137.705C293.659 137.597 293.585 137.469 293.54 137.331C293.494 137.192 293.479 137.045 293.494 136.9L293.799 133.423C293.83 133.113 293.974 132.825 294.203 132.615C294.433 132.404 294.731 132.285 295.043 132.281C295.188 132.278 295.333 132.307 295.466 132.365C295.6 132.424 295.72 132.51 295.817 132.618C295.915 132.726 295.989 132.854 296.033 132.992C296.077 133.131 296.092 133.278 296.075 133.423L295.77 136.9C295.739 137.208 295.596 137.494 295.369 137.705C295.141 137.915 294.845 138.035 294.535 138.042Z" fill="white"/>
</g>
<g opacity="0.8">
<path d="M212.041 138.042H206.322C206.24 138.044 206.158 138.028 206.083 137.995C206.007 137.963 205.939 137.914 205.884 137.853C205.829 137.792 205.787 137.72 205.762 137.642C205.737 137.563 205.729 137.481 205.739 137.399L206.001 134.328C206.02 134.154 206.101 133.992 206.23 133.874C206.36 133.755 206.528 133.688 206.703 133.685H212.422C212.504 133.683 212.586 133.699 212.662 133.732C212.737 133.764 212.805 133.812 212.861 133.873C212.916 133.934 212.957 134.006 212.983 134.085C213.008 134.163 213.016 134.246 213.006 134.328L212.735 137.399C212.72 137.573 212.641 137.736 212.513 137.855C212.384 137.974 212.216 138.04 212.041 138.042Z" fill="white"/>
<path d="M214.689 137.204C214.607 137.206 214.525 137.19 214.449 137.158C214.373 137.125 214.305 137.077 214.249 137.016C214.193 136.955 214.15 136.883 214.124 136.805C214.098 136.727 214.089 136.644 214.097 136.561L214.224 135.157C214.241 134.982 214.322 134.819 214.452 134.701C214.581 134.582 214.75 134.515 214.926 134.514C215.009 134.512 215.09 134.528 215.166 134.561C215.242 134.593 215.309 134.641 215.365 134.702C215.42 134.763 215.462 134.836 215.487 134.914C215.512 134.992 215.52 135.075 215.51 135.157L215.392 136.561C215.373 136.736 215.291 136.897 215.162 137.016C215.033 137.134 214.865 137.201 214.689 137.204Z" fill="white"/>
</g>
<path d="M267.482 208.903C278.866 198.005 280.002 180.716 270.018 170.287C260.034 159.858 242.712 160.238 231.328 171.136C219.943 182.034 218.808 199.323 228.792 209.753C238.775 220.182 256.098 219.801 267.482 208.903Z" fill="white"/>
<path d="M249.502 188.979C242.328 188.979 236.262 191.712 235.746 197.643L235.171 204.233H261.169L261.744 197.643C262.26 191.712 256.685 188.979 249.502 188.979Z" fill="#407BFF"/>
<path d="M249.739 186.264C253.072 186.264 254.612 183.565 254.9 180.232C255.187 176.899 254.13 174.2 250.797 174.2C247.463 174.2 245.932 176.907 245.636 180.232C245.34 183.557 246.406 186.264 249.739 186.264Z" fill="#407BFF"/>
<path d="M275.255 227.895C273.486 227.895 271.989 228.572 271.871 230.036L271.727 231.669H278.148L278.292 230.036C278.41 228.572 277.031 227.895 275.255 227.895Z" fill="#407BFF"/>
<path d="M275.314 227.227C276.16 227.227 276.515 226.559 276.591 225.738C276.667 224.918 276.397 224.249 275.576 224.249C274.755 224.249 274.375 224.918 274.299 225.738C274.222 226.559 274.493 227.227 275.314 227.227Z" fill="#407BFF"/>
<path d="M255.492 265.644H230.112C229.424 265.656 228.741 265.522 228.109 265.25C227.476 264.978 226.909 264.575 226.445 264.066C225.981 263.558 225.63 262.957 225.416 262.303C225.203 261.648 225.131 260.956 225.205 260.272C225.356 258.817 226.033 257.468 227.11 256.478C228.187 255.489 229.589 254.927 231.051 254.9H256.431C257.119 254.889 257.801 255.024 258.433 255.296C259.064 255.569 259.631 255.972 260.095 256.48C260.559 256.988 260.91 257.589 261.124 258.243C261.338 258.896 261.411 259.588 261.338 260.272C261.189 261.727 260.512 263.078 259.435 264.068C258.358 265.058 256.955 265.618 255.492 265.644Z" fill="#407BFF"/>
<path d="M252.421 325.558H225.256C224.527 325.577 223.803 325.44 223.132 325.155C222.461 324.869 221.859 324.443 221.368 323.904C220.877 323.366 220.507 322.727 220.285 322.033C220.062 321.339 219.992 320.605 220.078 319.881L221.813 300.068C221.968 298.531 222.681 297.104 223.818 296.058C224.955 295.011 226.435 294.418 227.98 294.391H255.154C255.88 294.378 256.602 294.52 257.269 294.808C257.937 295.096 258.535 295.522 259.025 296.059C259.515 296.597 259.885 297.232 260.11 297.923C260.335 298.614 260.411 299.345 260.331 300.068L258.597 319.881C258.438 321.418 257.722 322.844 256.585 323.89C255.447 324.935 253.966 325.529 252.421 325.558Z" fill="#407BFF"/>
<g opacity="0.6">
<path d="M244.046 305.068C244.09 304.635 244.042 304.198 243.905 303.786C243.768 303.373 243.545 302.995 243.251 302.675C242.956 302.355 242.598 302.101 242.198 301.93C241.798 301.759 241.367 301.675 240.932 301.684C240.007 301.697 239.118 302.048 238.434 302.672C237.75 303.295 237.317 304.147 237.218 305.068C237.165 305.582 237.241 306.102 237.44 306.58C237.64 307.057 237.956 307.477 238.361 307.8L237.768 314.627C237.739 314.886 237.766 315.148 237.846 315.395C237.927 315.643 238.059 315.87 238.234 316.063C238.41 316.255 238.624 316.407 238.863 316.51C239.103 316.613 239.361 316.663 239.621 316.658C240.172 316.646 240.7 316.433 241.105 316.059C241.511 315.685 241.765 315.176 241.821 314.627L242.421 307.8C242.875 307.49 243.255 307.085 243.535 306.613C243.816 306.141 243.99 305.614 244.046 305.068Z" fill="white"/>
</g>
<path d="M255.39 298.52H251.888L252.734 288.714C252.882 287.354 252.738 285.977 252.313 284.676C251.888 283.375 251.192 282.179 250.269 281.167C249.347 280.156 248.22 279.352 246.963 278.81C245.706 278.268 244.348 277.999 242.98 278.021C240.071 278.078 237.283 279.197 235.142 281.166C233.001 283.136 231.654 285.821 231.356 288.714L230.51 298.52H227.007L227.853 288.714C228.247 284.874 230.033 281.311 232.875 278.697C235.716 276.083 239.416 274.6 243.276 274.527C245.092 274.496 246.895 274.852 248.563 275.571C250.232 276.29 251.729 277.356 252.954 278.698C254.179 280.04 255.104 281.627 255.669 283.354C256.233 285.081 256.424 286.908 256.228 288.714L255.39 298.52Z" fill="#407BFF"/>
<path d="M275.686 242.912L275.796 241.956C275.819 241.734 275.794 241.511 275.724 241.299C275.655 241.088 275.541 240.893 275.391 240.729C275.241 240.564 275.057 240.433 274.853 240.344C274.649 240.256 274.428 240.211 274.206 240.213C273.732 240.223 273.278 240.406 272.929 240.726C272.58 241.047 272.36 241.485 272.31 241.956L272.226 242.895C272.036 242.9 271.855 242.975 271.717 243.104C271.578 243.233 271.491 243.409 271.473 243.597L271.253 246.135C271.242 246.224 271.25 246.314 271.277 246.399C271.304 246.484 271.35 246.563 271.41 246.629C271.47 246.695 271.544 246.747 271.627 246.781C271.709 246.816 271.798 246.832 271.887 246.829H275.373C275.562 246.826 275.743 246.753 275.881 246.625C276.02 246.498 276.107 246.323 276.126 246.135L276.346 243.597C276.353 243.508 276.341 243.417 276.311 243.333C276.281 243.248 276.233 243.171 276.171 243.106C276.108 243.041 276.033 242.99 275.949 242.957C275.866 242.923 275.776 242.908 275.686 242.912ZM274.104 240.662C274.272 240.66 274.438 240.693 274.592 240.76C274.746 240.826 274.885 240.925 274.998 241.049C275.111 241.172 275.197 241.319 275.25 241.478C275.303 241.637 275.322 241.806 275.305 241.973L275.221 242.912H272.598L272.683 241.973C272.72 241.619 272.884 241.29 273.146 241.049C273.408 240.808 273.748 240.67 274.104 240.662Z" fill="#407BFF"/>
<path d="M223.217 243.919L221.999 243.665C221.965 243.658 221.933 243.643 221.906 243.622C221.878 243.601 221.856 243.574 221.84 243.543C221.825 243.512 221.817 243.478 221.816 243.444C221.816 243.409 221.823 243.375 221.838 243.343L222.346 242.142C222.367 242.09 222.369 242.033 222.352 241.979C222.334 241.926 222.298 241.881 222.251 241.851C222.203 241.822 222.146 241.81 222.091 241.819C222.036 241.827 221.985 241.855 221.948 241.897L221.026 242.844C221.004 242.872 220.976 242.895 220.943 242.911C220.911 242.927 220.876 242.935 220.84 242.935C220.804 242.935 220.769 242.927 220.736 242.911C220.704 242.895 220.676 242.872 220.654 242.844L219.901 241.897C219.74 241.694 219.393 241.897 219.452 242.142L219.749 243.343C219.757 243.379 219.758 243.415 219.752 243.451C219.746 243.486 219.733 243.52 219.713 243.55C219.693 243.581 219.667 243.606 219.637 243.626C219.607 243.646 219.573 243.659 219.537 243.665L218.276 243.919C218.006 243.969 217.972 244.35 218.234 244.401L219.452 244.655C219.486 244.661 219.519 244.676 219.546 244.697C219.573 244.718 219.596 244.745 219.61 244.777C219.625 244.808 219.632 244.842 219.631 244.877C219.63 244.912 219.621 244.946 219.605 244.976L219.114 246.186C219.093 246.238 219.091 246.296 219.108 246.349C219.126 246.402 219.161 246.447 219.209 246.477C219.257 246.506 219.313 246.518 219.369 246.51C219.424 246.501 219.475 246.473 219.512 246.431L220.434 245.484C220.458 245.458 220.486 245.438 220.518 245.424C220.55 245.41 220.585 245.403 220.62 245.403C220.655 245.403 220.689 245.41 220.721 245.424C220.753 245.438 220.782 245.458 220.806 245.484L221.559 246.431C221.72 246.634 222.067 246.431 221.999 246.186L221.703 244.985C221.69 244.913 221.706 244.839 221.747 244.779C221.788 244.719 221.851 244.678 221.923 244.663L223.183 244.409C223.446 244.35 223.479 243.969 223.217 243.919Z" fill="#263238"/>
<path d="M231.22 243.919L230.002 243.665C229.968 243.658 229.936 243.643 229.909 243.622C229.881 243.601 229.859 243.574 229.843 243.543C229.828 243.512 229.82 243.478 229.819 243.444C229.819 243.409 229.826 243.375 229.841 243.343L230.349 242.142C230.37 242.09 230.372 242.033 230.355 241.979C230.337 241.926 230.302 241.881 230.254 241.851C230.206 241.822 230.15 241.81 230.094 241.819C230.039 241.827 229.988 241.855 229.951 241.897L229.029 242.844C229.007 242.872 228.979 242.895 228.946 242.911C228.914 242.927 228.879 242.935 228.843 242.935C228.807 242.935 228.772 242.927 228.74 242.911C228.707 242.895 228.679 242.872 228.657 242.844L227.904 241.897C227.743 241.694 227.396 241.897 227.464 242.142L227.76 243.343C227.767 243.379 227.768 243.416 227.76 243.451C227.753 243.487 227.739 243.521 227.718 243.551C227.698 243.581 227.671 243.606 227.641 243.626C227.61 243.646 227.576 243.659 227.54 243.665L226.28 243.919C226.009 243.969 225.975 244.35 226.237 244.401L227.456 244.655C227.489 244.662 227.521 244.676 227.549 244.697C227.576 244.718 227.599 244.745 227.614 244.776C227.63 244.807 227.638 244.841 227.638 244.876C227.639 244.911 227.631 244.945 227.616 244.976L227.109 246.178C227.088 246.229 227.086 246.287 227.103 246.34C227.12 246.394 227.156 246.439 227.204 246.468C227.251 246.498 227.308 246.509 227.363 246.501C227.419 246.493 227.469 246.465 227.506 246.423L228.428 245.475C228.452 245.45 228.481 245.429 228.513 245.415C228.545 245.401 228.58 245.394 228.615 245.394C228.65 245.394 228.684 245.401 228.716 245.415C228.748 245.429 228.777 245.45 228.801 245.475L229.554 246.423C229.714 246.626 230.061 246.423 230.002 246.178L229.706 244.976C229.698 244.941 229.698 244.905 229.705 244.87C229.711 244.835 229.725 244.801 229.745 244.771C229.764 244.741 229.79 244.716 229.819 244.696C229.849 244.676 229.882 244.662 229.917 244.655L231.178 244.401C231.449 244.35 231.483 243.969 231.22 243.919Z" fill="#263238"/>
<path d="M239.223 243.919L238.014 243.665C237.979 243.66 237.946 243.646 237.917 243.625C237.889 243.605 237.866 243.577 237.85 243.546C237.834 243.514 237.826 243.479 237.827 243.444C237.827 243.409 237.836 243.374 237.853 243.343L238.361 242.142C238.393 242.088 238.403 242.024 238.388 241.963C238.373 241.902 238.334 241.849 238.28 241.816C238.226 241.784 238.162 241.774 238.101 241.789C238.04 241.804 237.987 241.843 237.954 241.897L237.041 242.844C237.018 242.873 236.989 242.895 236.956 242.911C236.923 242.927 236.887 242.935 236.85 242.935C236.814 242.935 236.778 242.927 236.745 242.911C236.712 242.895 236.683 242.873 236.66 242.844L235.907 241.897C235.746 241.694 235.399 241.897 235.467 242.142L235.763 243.343C235.771 243.378 235.771 243.415 235.764 243.45C235.758 243.485 235.744 243.518 235.725 243.548C235.705 243.578 235.68 243.604 235.65 243.624C235.62 243.644 235.587 243.658 235.552 243.665L234.291 243.919C234.021 243.969 233.987 244.35 234.249 244.401L235.459 244.655C235.493 244.662 235.525 244.676 235.552 244.697C235.579 244.718 235.602 244.745 235.617 244.776C235.633 244.807 235.641 244.841 235.641 244.876C235.642 244.911 235.634 244.945 235.619 244.976L235.112 246.178C235.079 246.231 235.07 246.296 235.085 246.357C235.1 246.418 235.138 246.471 235.192 246.503C235.246 246.536 235.311 246.546 235.372 246.531C235.433 246.515 235.485 246.477 235.518 246.423L236.432 245.475C236.455 245.45 236.484 245.429 236.516 245.415C236.548 245.401 236.583 245.394 236.618 245.394C236.653 245.394 236.687 245.401 236.719 245.415C236.751 245.429 236.78 245.45 236.804 245.475L237.565 246.423C237.726 246.626 238.073 246.423 238.005 246.178L237.709 244.976C237.696 244.906 237.711 244.833 237.751 244.773C237.79 244.713 237.851 244.671 237.921 244.655L239.181 244.401C239.418 244.35 239.486 243.969 239.223 243.919Z" fill="#263238"/>
<path d="M247.235 243.919L246.017 243.665C245.983 243.658 245.951 243.643 245.924 243.622C245.896 243.601 245.874 243.574 245.858 243.543C245.843 243.512 245.835 243.478 245.834 243.444C245.834 243.409 245.841 243.375 245.856 243.343L246.364 242.142C246.385 242.09 246.387 242.033 246.369 241.979C246.352 241.926 246.316 241.881 246.269 241.851C246.221 241.822 246.164 241.81 246.109 241.819C246.054 241.827 246.003 241.855 245.966 241.897L245.044 242.844C245.022 242.872 244.993 242.895 244.961 242.911C244.929 242.927 244.894 242.935 244.858 242.935C244.822 242.935 244.787 242.927 244.754 242.911C244.722 242.895 244.694 242.872 244.672 242.844L243.919 241.897C243.758 241.694 243.411 241.897 243.47 242.142L243.766 243.343C243.775 243.379 243.776 243.415 243.77 243.451C243.764 243.486 243.751 243.52 243.731 243.55C243.711 243.581 243.685 243.606 243.655 243.626C243.625 243.646 243.591 243.659 243.555 243.665L242.294 243.919C242.024 243.969 241.99 244.35 242.294 244.401L243.513 244.655C243.547 244.661 243.579 244.676 243.606 244.697C243.634 244.718 243.656 244.745 243.671 244.777C243.685 244.808 243.693 244.842 243.692 244.877C243.691 244.912 243.682 244.946 243.665 244.976L243.166 246.178C243.145 246.229 243.143 246.287 243.16 246.34C243.177 246.394 243.213 246.439 243.261 246.468C243.309 246.498 243.365 246.509 243.42 246.501C243.476 246.493 243.526 246.465 243.563 246.423L244.486 245.475C244.509 245.45 244.538 245.429 244.57 245.415C244.602 245.401 244.637 245.394 244.672 245.394C244.707 245.394 244.741 245.401 244.773 245.415C244.805 245.429 244.834 245.45 244.858 245.475L245.611 246.423C245.771 246.626 246.118 246.423 246.051 246.178L245.755 244.976C245.742 244.905 245.758 244.831 245.799 244.771C245.84 244.711 245.903 244.669 245.975 244.655L247.235 244.401C247.463 244.35 247.497 243.969 247.235 243.919Z" fill="#263238"/>
<path d="M255.238 243.919L254.02 243.665C253.986 243.658 253.954 243.643 253.927 243.622C253.899 243.601 253.877 243.574 253.861 243.543C253.846 243.512 253.838 243.478 253.837 243.444C253.837 243.409 253.844 243.375 253.859 243.343L254.367 242.142C254.388 242.09 254.39 242.033 254.373 241.979C254.355 241.926 254.319 241.881 254.272 241.851C254.224 241.822 254.168 241.81 254.112 241.819C254.057 241.827 254.006 241.855 253.969 241.897L253.047 242.844C253.025 242.872 252.997 242.895 252.964 242.911C252.932 242.927 252.897 242.935 252.861 242.935C252.825 242.935 252.79 242.927 252.757 242.911C252.725 242.895 252.697 242.872 252.675 242.844L251.922 241.897C251.761 241.694 251.414 241.897 251.482 242.142L251.778 243.343C251.785 243.379 251.785 243.416 251.778 243.451C251.771 243.487 251.757 243.521 251.736 243.551C251.716 243.581 251.689 243.606 251.659 243.626C251.628 243.646 251.594 243.659 251.558 243.665L250.298 243.919C250.027 243.969 249.993 244.35 250.255 244.401L251.473 244.655C251.507 244.662 251.539 244.676 251.567 244.697C251.594 244.718 251.617 244.745 251.632 244.776C251.648 244.807 251.656 244.841 251.656 244.876C251.657 244.911 251.649 244.945 251.634 244.976L251.127 246.178C251.106 246.229 251.103 246.287 251.121 246.34C251.138 246.394 251.174 246.439 251.222 246.468C251.269 246.498 251.326 246.509 251.381 246.501C251.437 246.493 251.487 246.465 251.524 246.423L252.446 245.475C252.47 245.45 252.499 245.429 252.531 245.415C252.563 245.401 252.598 245.394 252.633 245.394C252.667 245.394 252.702 245.401 252.734 245.415C252.766 245.429 252.795 245.45 252.819 245.475L253.572 246.423C253.732 246.626 254.079 246.423 254.02 246.178L253.724 244.976C253.716 244.941 253.716 244.905 253.723 244.87C253.729 244.835 253.743 244.801 253.763 244.771C253.782 244.741 253.808 244.716 253.837 244.696C253.867 244.676 253.9 244.662 253.935 244.655L255.196 244.401C255.492 244.35 255.492 243.969 255.238 243.919Z" fill="#263238"/>
<path d="M263.241 243.919L262.023 243.665C261.989 243.658 261.957 243.644 261.929 243.623C261.902 243.602 261.88 243.574 261.865 243.543C261.85 243.512 261.843 243.477 261.844 243.443C261.845 243.408 261.854 243.374 261.871 243.343L262.378 242.142C262.395 242.115 262.405 242.086 262.41 242.055C262.415 242.024 262.413 241.993 262.406 241.963C262.398 241.932 262.385 241.904 262.366 241.879C262.348 241.854 262.325 241.833 262.298 241.816C262.271 241.8 262.242 241.79 262.211 241.785C262.18 241.78 262.149 241.782 262.119 241.789C262.088 241.797 262.06 241.81 262.035 241.828C262.01 241.847 261.988 241.87 261.972 241.897L261.059 242.844C261.036 242.873 261.007 242.895 260.974 242.911C260.941 242.927 260.905 242.935 260.868 242.935C260.832 242.935 260.796 242.927 260.763 242.911C260.73 242.895 260.701 242.873 260.678 242.844L259.925 241.897C259.764 241.694 259.417 241.897 259.485 242.142L259.781 243.343C259.789 243.378 259.789 243.415 259.782 243.45C259.776 243.485 259.762 243.518 259.743 243.548C259.723 243.578 259.697 243.604 259.668 243.624C259.638 243.644 259.605 243.658 259.57 243.665L258.309 243.919C258.038 243.969 258.005 244.35 258.267 244.401L259.477 244.655C259.511 244.662 259.542 244.676 259.57 244.697C259.597 244.718 259.62 244.745 259.635 244.776C259.651 244.807 259.659 244.841 259.659 244.876C259.66 244.911 259.652 244.945 259.637 244.976L259.13 246.178C259.097 246.231 259.087 246.296 259.103 246.357C259.118 246.418 259.156 246.471 259.21 246.503C259.264 246.536 259.329 246.546 259.39 246.531C259.451 246.515 259.503 246.477 259.536 246.423L260.45 245.475C260.473 245.45 260.502 245.429 260.534 245.415C260.566 245.401 260.601 245.394 260.636 245.394C260.671 245.394 260.705 245.401 260.737 245.415C260.769 245.429 260.798 245.45 260.822 245.475L261.575 246.423C261.614 246.467 261.667 246.497 261.726 246.507C261.784 246.517 261.844 246.507 261.897 246.479C261.949 246.45 261.989 246.405 262.012 246.35C262.035 246.296 262.039 246.235 262.023 246.178L261.727 244.976C261.714 244.906 261.729 244.833 261.769 244.773C261.808 244.713 261.869 244.671 261.939 244.655L263.199 244.401C263.47 244.35 263.504 243.969 263.241 243.919Z" fill="#263238"/>
<path d="M243.944 226.398H228.919C228.458 226.406 228.016 226.582 227.676 226.894C227.336 227.206 227.122 227.631 227.075 228.09C227.051 228.306 227.073 228.524 227.14 228.731C227.207 228.938 227.318 229.127 227.465 229.288C227.611 229.448 227.791 229.575 227.99 229.66C228.19 229.745 228.406 229.787 228.623 229.782H243.648C244.109 229.774 244.551 229.598 244.891 229.286C245.231 228.974 245.445 228.549 245.492 228.09C245.515 227.874 245.492 227.656 245.424 227.451C245.356 227.245 245.246 227.055 245.099 226.895C244.953 226.735 244.774 226.608 244.575 226.523C244.376 226.437 244.161 226.394 243.944 226.398Z" fill="#263238"/>
<path d="M259.206 226.398H250.484C250.024 226.406 249.582 226.583 249.244 226.895C248.906 227.207 248.693 227.632 248.648 228.09C248.624 228.305 248.646 228.523 248.713 228.729C248.779 228.935 248.889 229.124 249.035 229.284C249.181 229.445 249.359 229.572 249.558 229.658C249.756 229.743 249.971 229.786 250.188 229.782H258.876C259.336 229.774 259.777 229.597 260.116 229.285C260.454 228.973 260.666 228.548 260.712 228.09C260.736 227.878 260.714 227.663 260.65 227.459C260.585 227.256 260.478 227.068 260.336 226.908C260.194 226.749 260.02 226.621 259.825 226.533C259.631 226.445 259.42 226.399 259.206 226.398Z" fill="#263238"/>
<path d="M270.72 303.088C265.409 305.111 260.615 308.29 256.685 312.394C254.298 310.541 251.453 309.371 248.453 309.01L248.056 308.951L247.886 310.947L248.106 311.032C251.396 312.243 254.179 314.533 256 317.529L256.287 318.003L256.6 317.495C260.104 311.902 265.048 307.355 270.915 304.332L271.109 304.23L271.219 302.91L270.72 303.088Z" fill="#263238"/>
<path opacity="0.2" d="M195.121 136.519C194.043 138.402 193.38 140.493 193.176 142.653L180.579 286.659H219.562L227.396 256.634L224.816 226.601L232.65 196.577L230.112 166.552L237.946 136.519H195.121Z" fill="black"/>
<path d="M226.686 158.092L234.52 128.059H135.935L128.11 158.092L130.682 188.117L122.856 218.141L125.428 248.174L117.602 278.199H216.178L224.012 248.174L221.432 218.141L229.266 188.117L226.686 158.092Z" fill="#407BFF"/>
<path opacity="0.7" d="M226.686 158.092L234.52 128.059H135.935L128.11 158.092L130.682 188.117L122.856 218.141L125.428 248.174L117.602 278.199H216.178L224.012 248.174L221.432 218.141L229.266 188.117L226.686 158.092Z" fill="white"/>
<path opacity="0.5" d="M226.686 158.092H128.11L135.935 128.059H234.52L226.686 158.092Z" fill="white"/>
<path opacity="0.5" d="M221.432 218.141H122.856L130.682 188.117H229.266L221.432 218.141Z" fill="white"/>
<path opacity="0.5" d="M216.178 278.199H117.594L125.428 248.174H224.012L216.178 278.199Z" fill="white"/>
<path opacity="0.2" d="M213.497 170.638C212.485 170.931 211.436 171.073 210.383 171.061C208.956 171.124 207.535 170.834 206.246 170.215C206.013 170.077 205.747 170.004 205.476 170.004C205.228 170.007 204.984 170.071 204.766 170.19H204.715C204.337 170.402 203.933 170.564 203.514 170.672C202.567 170.922 201.591 171.044 200.612 171.036C200.316 171.036 200.028 171.036 199.766 171.036C199.006 170.987 198.254 170.854 197.524 170.638C197.417 170.606 197.306 170.586 197.194 170.579C197.008 170.564 196.821 170.587 196.644 170.648C196.468 170.709 196.306 170.805 196.168 170.931C196.031 171.058 195.921 171.211 195.846 171.382C195.77 171.553 195.731 171.737 195.731 171.924V172.838H157.356C156.651 172.838 155.953 172.977 155.301 173.247C154.65 173.517 154.059 173.913 153.56 174.412C153.062 174.911 152.667 175.503 152.398 176.155C152.129 176.806 151.991 177.505 151.992 178.21V183.616C151.99 184.322 152.127 185.021 152.396 185.674C152.664 186.326 153.059 186.92 153.557 187.419C154.056 187.919 154.648 188.316 155.3 188.587C155.951 188.857 156.65 188.996 157.356 188.996H200.95H201.238C201.703 189.386 202.194 189.775 202.719 190.172C203.243 190.57 203.988 191.12 204.673 191.611C204.907 191.78 205.188 191.871 205.476 191.871C205.765 191.871 206.046 191.78 206.28 191.611C211.762 187.634 215.282 184.893 215.282 177.364V171.949C215.284 171.733 215.235 171.519 215.139 171.325C215.042 171.131 214.901 170.963 214.726 170.835C214.552 170.707 214.349 170.622 214.135 170.588C213.921 170.554 213.702 170.571 213.497 170.638Z" fill="black"/>
<path d="M200.113 169.868H156.527C153.56 169.868 151.155 172.274 151.155 175.24V180.646C151.155 183.613 153.56 186.018 156.527 186.018H200.113C203.08 186.018 205.485 183.613 205.485 180.646V175.24C205.485 172.274 203.08 169.868 200.113 169.868Z" fill="#407BFF"/>
<path d="M209.546 168.083C208.118 168.144 206.698 167.854 205.409 167.237C205.18 167.097 204.916 167.022 204.647 167.022C204.379 167.022 204.115 167.097 203.886 167.237C202.594 167.855 201.171 168.145 199.741 168.083C198.688 168.094 197.639 167.952 196.627 167.66C196.424 167.592 196.206 167.573 195.994 167.605C195.781 167.637 195.579 167.719 195.405 167.845C195.23 167.971 195.088 168.136 194.99 168.328C194.893 168.519 194.842 168.731 194.842 168.946V174.361C194.842 181.898 198.362 184.639 203.844 188.616C204.077 188.785 204.359 188.876 204.647 188.876C204.936 188.876 205.217 188.785 205.451 188.616C210.933 184.639 214.453 181.898 214.453 174.361V168.946C214.452 168.731 214.4 168.519 214.301 168.327C214.202 168.136 214.059 167.971 213.884 167.845C213.709 167.72 213.507 167.638 213.294 167.605C213.081 167.573 212.863 167.592 212.659 167.66C211.647 167.953 210.599 168.095 209.546 168.083Z" fill="#407BFF"/>
<path opacity="0.3" d="M209.546 168.083C208.118 168.144 206.698 167.854 205.409 167.237C205.18 167.097 204.916 167.022 204.647 167.022C204.379 167.022 204.115 167.097 203.886 167.237C202.594 167.855 201.171 168.145 199.741 168.083C198.688 168.094 197.639 167.952 196.627 167.66C196.424 167.592 196.206 167.573 195.994 167.605C195.781 167.637 195.579 167.719 195.405 167.845C195.23 167.971 195.088 168.136 194.99 168.328C194.893 168.519 194.842 168.731 194.842 168.946V174.361C194.842 181.898 198.362 184.639 203.844 188.616C204.077 188.785 204.359 188.876 204.647 188.876C204.936 188.876 205.217 188.785 205.451 188.616C210.933 184.639 214.453 181.898 214.453 174.361V168.946C214.452 168.731 214.4 168.519 214.301 168.327C214.202 168.136 214.059 167.971 213.884 167.845C213.709 167.72 213.507 167.638 213.294 167.605C213.081 167.573 212.863 167.592 212.659 167.66C211.647 167.953 210.599 168.095 209.546 168.083Z" fill="white"/>
<path opacity="0.2" d="M203.886 167.22C202.594 167.838 201.171 168.129 199.741 168.066C198.688 168.077 197.639 167.934 196.627 167.643C196.424 167.575 196.206 167.556 195.994 167.588C195.781 167.62 195.579 167.702 195.405 167.828C195.23 167.954 195.088 168.119 194.99 168.311C194.893 168.502 194.842 168.714 194.842 168.929V174.344C194.842 181.882 198.362 184.623 203.844 188.599C204.089 188.777 204.387 188.869 204.69 188.861V167C204.406 166.995 204.127 167.071 203.886 167.22Z" fill="white"/>
<path d="M212.507 172.889C209.209 174.181 206.272 176.25 203.945 178.921C202.323 177.725 200.421 176.964 198.421 176.712H198.159V178.007L198.302 178.058C200.527 178.86 202.444 180.34 203.784 182.288L203.996 182.592L204.174 182.262C206.119 178.648 209.08 175.683 212.693 173.735L212.82 173.675V172.829L212.507 172.889Z" fill="#263238"/>
<path d="M232.777 136.511H229.038C228.557 136.52 228.079 136.426 227.637 136.236C227.195 136.045 226.799 135.763 226.475 135.408C226.15 135.052 225.906 134.632 225.757 134.174C225.608 133.717 225.558 133.233 225.611 132.754L225.941 129.015C226.043 127.998 226.514 127.054 227.266 126.361C228.017 125.669 228.997 125.277 230.019 125.259H233.758C234.24 125.249 234.718 125.341 235.161 125.531C235.604 125.721 236.002 126.003 236.327 126.358C236.652 126.714 236.898 127.135 237.047 127.593C237.196 128.051 237.246 128.536 237.193 129.015L236.863 132.754C236.749 133.768 236.273 134.706 235.522 135.396C234.771 136.087 233.796 136.482 232.777 136.511Z" fill="#407BFF"/>
<path d="M234.334 129.007L233.521 128.11L231.474 129.988L229.765 128.11L228.792 129.007L230.51 130.885L228.471 132.763L229.283 133.651L231.322 131.773L233.039 133.651L234.004 132.763L232.286 130.885L234.334 129.007Z" fill="white"/>
<path d="M149.209 168.769C151.375 171.129 153.439 173.574 155.495 176.036C157.551 178.498 159.539 181.01 161.518 183.531C161.603 183.641 161.569 183.599 161.586 183.633C161.603 183.667 161.586 183.675 161.586 183.684C161.601 183.715 161.621 183.743 161.645 183.768C161.717 183.871 161.809 183.958 161.915 184.025C162.021 184.091 162.139 184.136 162.263 184.157C162.358 184.17 162.455 184.17 162.55 184.157C162.601 184.161 162.652 184.161 162.703 184.157H162.779C162.821 184.157 162.779 184.157 162.914 184.107L165.029 182.956C167.872 181.45 170.74 179.978 173.701 178.658L176.179 181.729C173.794 183.92 171.307 186.67 168.794 188.683L166.899 190.172C166.781 190.268 166.657 190.356 166.527 190.435C166.383 190.537 166.233 190.63 166.078 190.714C165.772 190.89 165.456 191.048 165.131 191.188C164.475 191.463 163.787 191.653 163.083 191.754C161.66 191.963 160.207 191.818 158.853 191.331C158.165 191.087 157.511 190.754 156.908 190.342C156.603 190.139 156.315 189.902 156.062 189.673C155.918 189.555 155.799 189.419 155.664 189.292L155.326 188.954C153.084 186.653 150.876 184.335 148.71 181.975C146.544 179.614 144.404 177.237 142.356 174.767L149.209 168.769Z" fill="#B55B52"/>
<path d="M172.584 180.519L174.555 174.183L179.75 176.772C179.75 176.772 178.988 181.391 175.215 182.195L172.584 180.519Z" fill="#B55B52"/>
<path d="M176.628 172.432L181.315 173.718L179.741 176.772L174.547 174.183L176.628 172.432Z" fill="#B55B52"/>
<path d="M121.9 170.494C121.342 173.185 120.648 175.85 119.929 178.506C119.21 181.162 118.423 183.794 117.602 186.425L117.298 187.414L117.146 187.905C117.125 187.976 117.097 188.044 117.061 188.108C116.964 188.38 116.91 188.666 116.9 188.954C116.882 189.569 117.054 190.174 117.391 190.688C117.557 190.914 117.741 191.126 117.941 191.323L118.643 192.093L120.03 193.641C120.936 194.69 121.849 195.739 122.712 196.839L119.76 200.223C118.541 199.529 117.374 198.776 116.207 198.032L114.472 196.881L113.626 196.297C113.339 196.094 113.102 195.959 112.636 195.578C110.981 194.168 109.839 192.249 109.388 190.122C109.161 189.037 109.106 187.924 109.227 186.822C109.227 186.551 109.312 186.247 109.354 185.976L109.447 185.469L109.625 184.453C110.098 181.738 110.606 179.031 111.173 176.34C111.74 173.65 112.349 170.968 113.068 168.32L121.9 170.494Z" fill="#B55B52"/>
<path d="M119.819 196.568L123.304 194.783L124.844 200.705C124.844 200.705 122.044 201.779 119.878 200.4L119.819 196.568Z" fill="#B55B52"/>
<path d="M128.127 192.88L128.287 198.328L124.387 200.874L123.034 194.893L128.127 192.88Z" fill="#B55B52"/>
<path d="M139.539 142.526C139.624 142.94 139.92 143.236 140.191 143.185C140.461 143.135 140.622 142.746 140.538 142.339C140.453 141.933 140.157 141.629 139.886 141.68C139.615 141.73 139.455 142.128 139.539 142.526Z" fill="#263238"/>
<path d="M139.878 143.245C140.639 144.425 141.559 145.495 142.61 146.426C142.365 146.689 142.066 146.896 141.733 147.032C141.4 147.168 141.041 147.23 140.681 147.212L139.878 143.245Z" fill="#A02724"/>
<path d="M137.534 140.512C137.485 140.512 137.438 140.497 137.397 140.47C137.357 140.443 137.325 140.405 137.305 140.361C137.285 140.316 137.279 140.267 137.287 140.219C137.294 140.17 137.316 140.125 137.348 140.089C137.613 139.789 137.945 139.557 138.317 139.41C138.689 139.263 139.09 139.206 139.488 139.243C139.521 139.249 139.553 139.262 139.58 139.28C139.608 139.298 139.632 139.322 139.651 139.349C139.67 139.377 139.683 139.408 139.69 139.44C139.697 139.473 139.698 139.506 139.692 139.539C139.686 139.572 139.675 139.603 139.658 139.631C139.64 139.659 139.617 139.683 139.591 139.702C139.564 139.721 139.533 139.734 139.501 139.741C139.469 139.748 139.436 139.748 139.404 139.742C139.088 139.712 138.77 139.758 138.476 139.875C138.181 139.993 137.92 140.18 137.712 140.419C137.667 140.472 137.603 140.505 137.534 140.512Z" fill="#263238"/>
<path d="M127.34 148.422C128.271 152.305 129.21 159.42 125.876 162.001C125.876 162.001 127.179 165.943 136.028 165.943C145.757 165.943 140.681 163.405 140.681 163.405C135.368 162.373 135.504 157.762 136.451 154.742L127.34 148.422Z" fill="#B55B52"/>
<path d="M124.836 162.72C124.26 161.645 123.618 160.41 124.937 160.021C126.392 159.598 135.724 158.811 138.473 159.606C137.627 161.104 139.057 162.99 139.057 162.99L124.836 162.72Z" fill="#263238"/>
<path d="M132.568 344.254H138.668L139.277 331.97H133.169L132.568 344.254Z" fill="#B55B52"/>
<path d="M93.8299 342.562L100.014 342.892L103.77 330.786L97.5861 330.456L93.8299 342.562Z" fill="#B55B52"/>
<path d="M99.828 342.402L93.9991 341.141C93.897 341.118 93.79 341.13 93.6961 341.177C93.6021 341.223 93.5269 341.3 93.483 341.395L91.4611 345.786C91.4113 345.892 91.3866 346.009 91.3889 346.126C91.3912 346.244 91.4205 346.36 91.4744 346.464C91.5283 346.569 91.6054 346.659 91.6999 346.73C91.7944 346.8 91.9037 346.847 92.0194 346.868C94.0583 347.275 95.0735 347.368 97.6369 347.926C99.2104 348.264 102.772 349.136 104.946 349.618C107.121 350.1 107.873 348.002 107.027 347.613C103.22 345.879 101.63 344.347 100.598 342.918C100.413 342.658 100.139 342.474 99.828 342.402Z" fill="#263238"/>
<path d="M138.346 343.637H132.551C132.446 343.638 132.345 343.675 132.264 343.741C132.182 343.807 132.126 343.898 132.103 344.001L131.054 348.713C131.027 348.827 131.026 348.946 131.052 349.06C131.078 349.174 131.129 349.281 131.203 349.373C131.276 349.464 131.37 349.538 131.476 349.587C131.582 349.637 131.698 349.662 131.815 349.66C133.905 349.66 136.891 349.5 139.556 349.5C142.627 349.5 145.275 349.669 148.862 349.669C151.036 349.669 151.645 347.469 150.732 347.266C146.578 346.361 143.194 346.259 139.607 344.051C139.232 343.801 138.796 343.658 138.346 343.637Z" fill="#263238"/>
<path d="M114.819 163.794C110.217 165.985 108.965 179.267 108.965 179.267L120.36 184.53C122.287 181.281 123.336 177.587 123.406 173.811C123.634 166.95 119.531 161.586 114.819 163.794Z" fill="#263238"/>
<path opacity="0.4" d="M120.978 171.983C118.922 175.181 119.117 180.122 119.827 184.293L120.335 184.53C122.259 181.28 123.309 177.587 123.381 173.811C123.381 173.405 123.381 172.965 123.381 172.601L120.978 171.983Z" fill="black"/>
<path d="M146.62 163.473C146.62 163.473 152.272 169.851 146.933 209.326H118.567C118.372 204.969 121.105 183.726 116.875 163.202C120.01 162.599 123.181 162.198 126.367 162.001C130.385 161.772 134.413 161.772 138.431 162.001C141.194 162.28 143.932 162.773 146.62 163.473Z" fill="#407BFF"/>
<path opacity="0.6" d="M146.62 163.473C146.62 163.473 152.272 169.851 146.933 209.326H118.567C118.372 204.969 121.105 183.726 116.875 163.202C120.01 162.599 123.181 162.198 126.367 162.001C130.385 161.772 134.413 161.772 138.431 162.001C141.194 162.28 143.932 162.773 146.62 163.473Z" fill="#FAFAFA"/>
<path opacity="0.2" d="M149.099 175.537L148.998 175.443L143.355 172.432C142.779 181.12 146.663 186.568 148.972 188.946C149.262 184.482 149.304 180.005 149.099 175.537Z" fill="black"/>
<path opacity="0.2" d="M139.277 331.97L138.964 338.307H132.856L133.169 331.97H139.277Z" fill="black"/>
<path opacity="0.2" d="M97.5861 330.465L103.77 330.786L101.833 337.029L95.6487 336.7L97.5861 330.465Z" fill="black"/>
<path d="M125.377 144.48C126.739 149.556 127.281 152.61 130.453 154.725C135.174 157.906 141.045 154.251 141.231 148.862C141.392 144.015 139.142 136.511 133.685 135.487C132.48 135.249 131.234 135.323 130.067 135.703C128.899 136.084 127.848 136.757 127.015 137.659C126.182 138.561 125.594 139.662 125.307 140.856C125.02 142.05 125.044 143.298 125.377 144.48Z" fill="#B55B52"/>
<path d="M136.874 209.326C136.874 209.326 130.851 249.858 127.568 265.052C123.931 281.718 104.523 336.708 104.523 336.708L95.0227 334.652C95.0227 334.652 107.197 289.814 110.251 266.566C111.435 257.489 112.865 242.878 114.675 230.67C116.427 218.826 118.584 209.334 118.584 209.334L136.874 209.326Z" fill="#263238"/>
<path d="M106.799 333.535L105.022 336.97L94.3459 334.652L95.2427 331.446L106.799 333.535Z" fill="#407BFF"/>
<path opacity="0.6" d="M106.799 333.535L105.022 336.97L94.3459 334.652L95.2427 331.446L106.799 333.535Z" fill="white"/>
<path opacity="0.6" d="M133.067 223.767C126.105 225.129 126.841 251.093 127.678 264.443C129.692 255.001 132.627 236.846 134.632 223.953C134.147 223.714 133.595 223.649 133.067 223.767Z" fill="black"/>
<path d="M146.933 209.326C146.933 209.326 149.767 248.986 149.192 265.162C148.591 281.989 140.614 337.072 140.614 337.072H131.629C131.629 337.072 131.299 282.928 130.902 266.439C130.462 248.419 128.287 209.317 128.287 209.317L146.933 209.326Z" fill="#263238"/>
<path d="M142.339 333.502C142.382 333.502 141.832 337.233 141.832 337.233H130.902L130.605 333.899L142.339 333.502Z" fill="#407BFF"/>
<path opacity="0.6" d="M142.339 333.502C142.382 333.502 141.832 337.233 141.832 337.233H130.902L130.605 333.899L142.339 333.502Z" fill="white"/>
<path d="M143.312 170.892C143.312 181.535 148.972 185.917 148.972 185.917L158.202 176.932C156.017 173.281 153.53 169.82 150.766 166.586C145.427 160.469 143.312 164.056 143.312 170.892Z" fill="#263238"/>
<path opacity="0.2" d="M140.876 150.791C140.688 151.324 140.372 151.804 139.956 152.187C139.54 152.57 139.037 152.846 138.49 152.991C137.889 153.113 137.343 153.426 136.933 153.883C136.523 154.341 136.271 154.917 136.214 155.529C137.31 155.162 138.303 154.542 139.113 153.719C139.923 152.895 140.527 151.892 140.876 150.791Z" fill="black"/>
<path d="M138.49 134.37C140.385 131.976 137.467 131.832 137.467 131.832C138.228 128.981 134.81 130.512 134.81 130.512C132.763 127.687 131.604 131.13 131.604 131.13C129.48 128.736 129.066 132.644 129.066 132.644C126.934 129.607 125.851 133.989 125.851 133.989C123.888 130.834 122.687 134.937 122.687 134.937C118.635 133.49 120.555 137.703 120.555 137.703C117.103 137.796 119.878 140.478 119.878 140.478C115.733 140.478 119.388 142.856 119.388 142.856C116.097 145.013 120.234 145.597 120.234 145.597C117.552 149.827 122.162 148.236 122.162 148.236C120.293 152.398 124.43 150.563 124.43 150.563C124.167 154.573 126.477 153.481 127.594 152.737C127.805 153.583 128.211 154.429 128.956 154.497C130.402 154.691 130.648 151.959 130.648 151.959C130.648 151.959 131.984 153.008 133.11 152.441C134.235 151.874 133.812 150.444 133.812 150.444C134.056 150.627 134.353 150.725 134.658 150.725C134.963 150.725 135.26 150.627 135.504 150.444C135.986 150.072 135.986 147.382 135.377 146.434L137.577 145.588C137.577 145.588 139.209 145.36 138.482 143.202C138.043 141.963 138.004 140.616 138.372 139.353C140.859 138.186 138.812 136.815 138.812 136.815C141.697 134.962 138.49 134.37 138.49 134.37Z" fill="#263238"/>
<path d="M134.032 144.666C134.376 145.928 135.129 147.041 136.172 147.83C137.551 148.862 138.583 147.83 138.482 146.282C138.397 144.877 137.568 142.653 136.045 142.23C134.522 141.807 133.668 143.169 134.032 144.666Z" fill="#B55B52"/>
</svg>
