<svg width="139" height="56" viewBox="0 0 139 56" fill="none" xmlns="http://www.w3.org/2000/svg">
<path d="M46.9142 36.8518H55.5096V41H41.6822V14.9146H46.9142V36.8518ZM68.0285 41.3363C66.0354 41.3363 64.2416 40.9003 62.647 40.0283C61.0525 39.1314 59.7943 37.8732 58.8725 36.2538C57.9756 34.6344 57.5271 32.7658 57.5271 30.6481C57.5271 28.5303 57.988 26.6618 58.9099 25.0423C59.8566 23.4229 61.1397 22.1772 62.7592 21.3052C64.3786 20.4083 66.1849 19.9598 68.178 19.9598C70.1712 19.9598 71.9775 20.4083 73.5969 21.3052C75.2163 22.1772 76.487 23.4229 77.4088 25.0423C78.3556 26.6618 78.8289 28.5303 78.8289 30.6481C78.8289 32.7658 78.3431 34.6344 77.3714 36.2538C76.4247 37.8732 75.1291 39.1314 73.4848 40.0283C71.8654 40.9003 70.0466 41.3363 68.0285 41.3363ZM68.0285 36.777C68.9753 36.777 69.8598 36.5528 70.6819 36.1043C71.529 35.6309 72.2017 34.9333 72.7 34.0115C73.1983 33.0897 73.4474 31.9685 73.4474 30.6481C73.4474 28.6798 72.9242 27.1725 71.8778 26.1261C70.8563 25.0548 69.5982 24.5191 68.1033 24.5191C66.6084 24.5191 65.3502 25.0548 64.3288 26.1261C63.3322 27.1725 62.8339 28.6798 62.8339 30.6481C62.8339 32.6163 63.3197 34.1361 64.2914 35.2074C65.288 36.2538 66.5337 36.777 68.0285 36.777ZM90.7765 19.9598C92.3211 19.9598 93.679 20.2712 94.85 20.8941C96.0209 21.492 96.9428 22.2768 97.6155 23.2485V20.2961H102.885V41.1495C102.885 43.0679 102.499 44.7745 101.726 46.2694C100.954 47.7892 99.7955 48.9851 98.2508 49.8571C96.7061 50.754 94.8375 51.2024 92.645 51.2024C89.7051 51.2024 87.2884 50.5173 85.3949 49.147C83.5264 47.7767 82.4675 45.9081 82.2184 43.5413H87.413C87.6871 44.488 88.2726 45.2354 89.1695 45.7836C90.0913 46.3566 91.2 46.6431 92.4956 46.6431C94.0153 46.6431 95.2486 46.1822 96.1953 45.2604C97.1421 44.3634 97.6155 42.9932 97.6155 41.1495V37.9355C96.9428 38.9072 96.0085 39.7169 94.8126 40.3647C93.6416 41.0125 92.2962 41.3363 90.7765 41.3363C89.0324 41.3363 87.4379 40.8879 85.9929 39.991C84.5479 39.094 83.4018 37.8359 82.5547 36.2164C81.7325 34.5721 81.3214 32.691 81.3214 30.5733C81.3214 28.4805 81.7325 26.6244 82.5547 25.005C83.4018 23.3855 84.5354 22.1398 85.9555 21.2678C87.4006 20.3958 89.0075 19.9598 90.7765 19.9598ZM97.6155 30.6481C97.6155 29.3774 97.3663 28.2937 96.868 27.3967C96.3697 26.4749 95.6971 25.7773 94.85 25.3039C94.0029 24.8056 93.0935 24.5565 92.1218 24.5565C91.1502 24.5565 90.2533 24.7932 89.4311 25.2666C88.6089 25.7399 87.9362 26.4375 87.413 27.3594C86.9147 28.2563 86.6656 29.3276 86.6656 30.5733C86.6656 31.819 86.9147 32.9153 87.413 33.862C87.9362 34.7839 88.6089 35.4939 89.4311 35.9922C90.2782 36.4905 91.1751 36.7396 92.1218 36.7396C93.0935 36.7396 94.0029 36.503 94.85 36.0296C95.6971 35.5313 96.3697 34.8337 96.868 33.9368C97.3663 33.0149 97.6155 31.9187 97.6155 30.6481Z" fill="#333333"/>
<path d="M110.1 14.9146V41H104.868V14.9146H110.1ZM126.742 19.9972C129.209 19.9972 131.202 20.782 132.722 22.3516C134.241 23.8963 135.001 26.0638 135.001 28.8542V41H129.769V29.5643C129.769 27.9199 129.358 26.6618 128.536 25.7898C127.714 24.8928 126.593 24.4444 125.173 24.4444C123.728 24.4444 122.581 24.8928 121.734 25.7898C120.912 26.6618 120.501 27.9199 120.501 29.5643V41H115.269V20.2961H120.501V22.8748C121.199 21.9779 122.083 21.2803 123.155 20.782C124.251 20.2588 125.447 19.9972 126.742 19.9972Z" fill="#407BFF"/>
<g clip-path="url(#clip0_3_163)">
<path d="M15.3131 12.5517C24.1887 12.5517 31.3793 19.576 31.3793 28.2414C31.3793 36.9068 24.1872 43.931 15.3131 43.931C10.3065 43.931 5.67652 41.6764 2.65155 37.8968C2.56675 37.7912 2.50404 37.6697 2.46713 37.5394C2.43023 37.4091 2.41988 37.2728 2.43671 37.1384C2.45354 37.0041 2.49721 36.8745 2.56511 36.7573C2.63301 36.6402 2.72377 36.5379 2.83198 36.4565C3.05266 36.2886 3.33002 36.2132 3.60532 36.2463C3.88062 36.2794 4.13222 36.4184 4.30681 36.6338C5.63012 38.2784 7.30682 39.6039 9.21246 40.5119C11.1181 41.4199 13.2038 41.8871 15.3147 41.8788C23.0261 41.8788 29.2785 35.7724 29.2785 28.2414C29.2785 20.7103 23.0261 14.6039 15.3147 14.6039C13.2339 14.5959 11.1773 15.0499 9.29329 15.933C7.40924 16.8162 5.74471 18.1065 4.41978 19.7109C4.24242 19.9244 3.98887 20.0603 3.71293 20.0899C3.43699 20.1195 3.16039 20.0404 2.94181 19.8694C2.83453 19.7866 2.74501 19.6831 2.67856 19.565C2.61211 19.4469 2.57009 19.3166 2.55502 19.1819C2.53994 19.0472 2.55211 18.9109 2.59079 18.781C2.62948 18.6512 2.69389 18.5304 2.78021 18.4259C5.80988 14.7389 10.3787 12.5517 15.3147 12.5517H15.3131ZM16.1682 23.318L20.4154 27.5652C20.8264 27.9762 20.8343 28.6321 20.4326 29.0337L16.2859 33.1836C16.1883 33.2791 16.0728 33.3545 15.946 33.4053C15.8193 33.4561 15.6838 33.4815 15.5472 33.4799C15.4107 33.4783 15.2758 33.4497 15.1503 33.396C15.0248 33.3422 14.9111 33.2641 14.8157 33.1664C14.7181 33.0709 14.6402 32.9572 14.5865 32.8316C14.5329 32.706 14.5045 32.5711 14.503 32.4346C14.5016 32.298 14.5271 32.1625 14.578 32.0358C14.629 31.9091 14.7044 31.7937 14.8001 31.6962L17.2272 29.2675L1.05121 29.2691C0.914676 29.2707 0.779157 29.2454 0.652405 29.1947C0.525653 29.1439 0.410155 29.0686 0.312519 28.9732C0.214883 28.8777 0.137025 28.764 0.0833993 28.6384C0.029774 28.5128 0.00143373 28.3779 0 28.2414C0 27.675 0.47069 27.2153 1.05121 27.2153H17.1613L14.7169 24.7693C14.6192 24.6738 14.5413 24.5601 14.4877 24.4345C14.434 24.3089 14.4056 24.174 14.4042 24.0375C14.4027 23.9009 14.4282 23.7654 14.4792 23.6387C14.5301 23.512 14.6056 23.3966 14.7012 23.2991C14.8982 23.1072 15.1633 23.0012 15.4383 23.0045C15.7133 23.0077 15.9758 23.1199 16.1682 23.3164V23.318Z" fill="#407BFF"/>
</g>
<defs>
<clipPath id="clip0_3_163">
<rect width="31.3793" height="31.3793" fill="white" transform="translate(0 12.5517)"/>
</clipPath>
</defs>
</svg>
